<svg xmlns="http://www.w3.org/2000/svg" xmlns:xlink="http://www.w3.org/1999/xlink" viewBox="0 0 64 64" version="1.1">
<g id="surface1">
<path style=" fill:#FAEFDE;" d="M 59 50 L 41.171875 57 L 21 49 L 3 55 L 3 13 L 20.96875 7 L 41.828125 15 L 59 8 Z "></path>
<path style=" fill:#FFF7F0;" d="M 40.828125 15 L 21 7.011719 L 21 49 L 41.171875 57 Z "></path>
<path style=" fill:#EFD8BE;" d="M 40.828125 15 L 41.171875 57 L 59 50 L 59 8 Z "></path>
<path style=" fill:#C5E4FA;" d="M 41.828125 20 L 20.96875 12 L 7 16.660156 L 7 48.671875 L 21 44 L 41.171875 52 L 55 46.570313 L 55 14.628906 Z "></path>
<path style=" fill:#E3F2FF;" d="M 40.828125 20 L 21 12.011719 L 21 44 L 41.171875 52 Z "></path>
<path style=" fill:#C5E4FA;" d="M 55 14.539063 L 40.828125 20 L 41.171875 52 L 55 46.570313 Z "></path>
<path style=" fill:#ED7899;" d="M 49 13 C 49 17.417969 45.417969 21 41 21 C 36.582031 21 33 17.417969 33 13 C 33 8.582031 36.582031 5 41 5 C 45.417969 5 49 8.582031 49 13 Z "></path>
<path style=" fill:#8D6C9F;" d="M 59.128906 7.808594 C 58.585938 7.441406 57.894531 7.359375 57.28125 7.601563 L 49.660156 10.601563 C 48.566406 6.746094 45.054688 4.078125 41.046875 4.058594 C 37.042969 4.035156 33.503906 6.667969 32.371094 10.511719 L 22.050781 6.339844 C 21.394531 6.078125 20.667969 6.058594 20 6.28125 L 4.050781 11.601563 C 2.828125 12.007813 2.003906 13.152344 2 14.441406 L 2 53.609375 C 2 54.253906 2.308594 54.855469 2.828125 55.234375 C 3.351563 55.609375 4.019531 55.710938 4.628906 55.511719 L 20.628906 50.179688 C 20.851563 50.097656 21.097656 50.097656 21.320313 50.179688 L 39.898438 57.640625 C 40.605469 57.917969 41.394531 57.917969 42.101563 57.640625 L 58.101563 51.421875 C 59.246094 50.96875 60 49.863281 60 48.628906 L 60 9.460938 C 60 8.800781 59.675781 8.183594 59.128906 7.808594 Z M 40 21.941406 L 40 39 C 40 39.550781 40.449219 40 41 40 C 41.550781 40 42 39.550781 42 39 L 42 21.941406 C 44.535156 21.652344 46.828125 20.304688 48.308594 18.230469 L 54 16 L 54 45.871094 L 41 50.921875 L 21.710938 43.210938 C 21.472656 43.117188 21.222656 43.070313 20.96875 43.070313 C 20.757813 43.070313 20.542969 43.101563 20.339844 43.171875 L 8 47.28125 L 8 17.390625 L 21 13.070313 L 33.640625 18.128906 C 35.113281 20.253906 37.429688 21.644531 40 21.941406 Z M 41 6 C 44.867188 6 48 9.132813 48 13 C 48 16.867188 44.867188 20 41 20 C 37.132813 20 34 16.867188 34 13 C 34 9.132813 37.132813 6 41 6 Z M 58 48.628906 C 58 49.042969 57.746094 49.410156 57.359375 49.558594 L 41.359375 55.78125 C 41.125 55.871094 40.863281 55.871094 40.628906 55.78125 L 22.050781 48.339844 C 21.394531 48.078125 20.667969 48.058594 20 48.28125 L 4 53.609375 L 4 14.441406 C 4 14.011719 4.273438 13.628906 4.679688 13.488281 L 20.621094 8.179688 C 20.84375 8.097656 21.085938 8.097656 21.308594 8.179688 L 32 12.488281 C 32 12.660156 32 12.828125 32 13 C 32.003906 13.832031 32.121094 14.660156 32.351563 15.460938 L 21.710938 11.210938 C 21.265625 11.046875 20.78125 11.046875 20.339844 11.210938 L 7.339844 15.53125 C 6.546875 15.808594 6.011719 16.550781 6 17.390625 L 6 47.28125 C 6 47.921875 6.308594 48.527344 6.828125 48.902344 C 7.351563 49.28125 8.019531 49.382813 8.628906 49.179688 L 21 45.058594 L 40.289063 52.78125 C 40.761719 52.964844 41.289063 52.964844 41.761719 52.78125 L 54.761719 47.730469 C 55.511719 47.421875 56.003906 46.683594 56 45.871094 L 56 16 C 56 15.339844 55.671875 14.726563 55.128906 14.355469 C 54.585938 13.984375 53.894531 13.902344 53.28125 14.140625 L 49.621094 15.558594 C 49.871094 14.730469 49.996094 13.867188 50 13 C 50 12.859375 50 12.71875 50 12.578125 L 58 9.460938 Z "></path>
<path style=" fill:#8D6C9F;" d="M 41 10 C 41.703125 10 42.382813 10.25 42.921875 10.699219 C 43.34375 11.054688 43.972656 11.003906 44.328125 10.578125 C 44.6875 10.15625 44.632813 9.527344 44.210938 9.171875 C 43.3125 8.414063 42.175781 8 41 8 C 40.449219 8 40 8.449219 40 9 C 40 9.550781 40.449219 10 41 10 Z "></path>
<path style=" fill:#8D6C9F;" d="M 16 32 C 15.449219 32 15 32.449219 15 33 L 15 35 C 15 35.550781 15.449219 36 16 36 C 16.550781 36 17 35.550781 17 35 L 17 33 C 17 32.449219 16.550781 32 16 32 Z "></path>
<path style=" fill:#8D6C9F;" d="M 20 33 L 20 35 C 20 35.550781 20.449219 36 21 36 C 21.550781 36 22 35.550781 22 35 L 22 33 C 22 32.449219 21.550781 32 21 32 C 20.449219 32 20 32.449219 20 33 Z "></path>
<path style=" fill:#8D6C9F;" d="M 26 36 C 26.550781 36 27 35.550781 27 35 L 27 33 C 27 32.449219 26.550781 32 26 32 C 25.449219 32 25 32.449219 25 33 L 25 35 C 25 35.550781 25.449219 36 26 36 Z "></path>
<path style=" fill:#8D6C9F;" d="M 31 36 C 31.550781 36 32 35.550781 32 35 L 32 33 C 32 32.449219 31.550781 32 31 32 C 30.449219 32 30 32.449219 30 33 L 30 35 C 30 35.550781 30.449219 36 31 36 Z "></path>
<path style=" fill:#8D6C9F;" d="M 36 36 C 36.550781 36 37 35.550781 37 35 L 37 33 C 37 32.449219 36.550781 32 36 32 C 35.449219 32 35 32.449219 35 33 L 35 35 C 35 35.550781 35.449219 36 36 36 Z "></path>
<path style=" fill:#8D6C9F;" d="M 46 36 C 46.550781 36 47 35.550781 47 35 L 47 33 C 47 32.449219 46.550781 32 46 32 C 45.449219 32 45 32.449219 45 33 L 45 35 C 45 35.550781 45.449219 36 46 36 Z "></path>
<path style=" fill:#8D6C9F;" d="M 51 36 C 51.550781 36 52 35.550781 52 35 L 52 33 C 52 32.449219 51.550781 32 51 32 C 50.449219 32 50 32.449219 50 33 L 50 35 C 50 35.550781 50.449219 36 51 36 Z "></path>
<path style=" fill:#8D6C9F;" d="M 11 32 C 10.449219 32 10 32.449219 10 33 L 10 35 C 10 35.550781 10.449219 36 11 36 C 11.550781 36 12 35.550781 12 35 L 12 33 C 12 32.449219 11.550781 32 11 32 Z "></path>
</g>
</svg>