<?xml version="1.0" encoding="UTF-8" standalone="no"?>
<svg width="498px" height="300px" viewBox="0 0 498 300" version="1.1" xmlns="http://www.w3.org/2000/svg" xmlns:xlink="http://www.w3.org/1999/xlink">
    <title>Slice 1</title>
    <desc>Created with Sketch.</desc>
    <defs></defs>
    <g id="Page-1" stroke="none" stroke-width="1" fill="none" fill-rule="evenodd">
        <g id="US-EPS-01-3001">
            <path d="M42.874,0 C46.44,0 49.331,2.891 49.331,6.457 C49.331,10.023 46.44,12.914 42.874,12.914 C39.308,12.914 36.417,10.023 36.417,6.457 C36.417,2.891 39.308,0 42.874,0" id="Fill-3" fill="#2D2E2C"></path>
            <path d="M60.755,0 C64.321,0 67.212,2.891 67.212,6.457 C67.212,10.023 64.321,12.914 60.755,12.914 C57.189,12.914 54.298,10.023 54.298,6.457 C54.298,2.891 57.189,0 60.755,0" id="Fill-4" fill="#2D2E2C"></path>
            <path d="M78.636,0 C82.202,0 85.093,2.891 85.093,6.457 C85.093,10.023 82.202,12.914 78.636,12.914 C75.07,12.914 72.179,10.023 72.179,6.457 C72.179,2.891 75.07,0 78.636,0" id="Fill-5" fill="#2D2E2C"></path>
            <path d="M96.517,0 C100.083,0 102.974,2.891 102.974,6.457 C102.974,10.023 100.083,12.914 96.517,12.914 C92.95,12.914 90.06,10.023 90.06,6.457 C90.06,2.891 92.95,0 96.517,0" id="Fill-6" fill="#2D2E2C"></path>
            <path d="M114.397,0 C117.963,0 120.854,2.891 120.854,6.457 C120.854,10.023 117.963,12.914 114.397,12.914 C110.831,12.914 107.94,10.023 107.94,6.457 C107.94,2.891 110.831,0 114.397,0" id="Fill-7" fill="#2D2E2C"></path>
            <path d="M275.821,0 C279.387,0 282.278,2.891 282.278,6.457 C282.278,10.023 279.387,12.914 275.821,12.914 C272.255,12.914 269.364,10.023 269.364,6.457 C269.364,2.891 272.255,0 275.821,0" id="Fill-8" fill="#2D2E2C"></path>
            <path d="M490.887,0 C494.453,0 497.344,2.891 497.344,6.457 C497.344,10.023 494.453,12.914 490.887,12.914 C487.321,12.914 484.43,10.023 484.43,6.457 C484.43,2.891 487.321,0 490.887,0" id="Fill-9" fill="#2D2E2C"></path>
            <path d="M24.993,17.881 C28.559,17.881 31.45,20.772 31.45,24.338 C31.45,27.904 28.559,30.795 24.993,30.795 C21.427,30.795 18.536,27.904 18.536,24.338 C18.536,20.772 21.427,17.881 24.993,17.881" id="Fill-10" fill="#2D2E2C"></path>
            <path d="M42.874,17.881 C46.44,17.881 49.331,20.772 49.331,24.338 C49.331,27.904 46.44,30.795 42.874,30.795 C39.308,30.795 36.417,27.904 36.417,24.338 C36.417,20.772 39.308,17.881 42.874,17.881" id="Fill-11" fill="#2D2E2C"></path>
            <path d="M60.755,17.881 C64.321,17.881 67.212,20.772 67.212,24.338 C67.212,27.904 64.321,30.795 60.755,30.795 C57.189,30.795 54.298,27.904 54.298,24.338 C54.298,20.772 57.189,17.881 60.755,17.881" id="Fill-12" fill="#2D2E2C"></path>
            <path d="M78.636,17.881 C82.202,17.881 85.093,20.772 85.093,24.338 C85.093,27.904 82.202,30.795 78.636,30.795 C75.07,30.795 72.179,27.904 72.179,24.338 C72.179,20.772 75.07,17.881 78.636,17.881" id="Fill-13" fill="#2D2E2C"></path>
            <path d="M96.517,17.881 C100.083,17.881 102.974,20.772 102.974,24.338 C102.974,27.904 100.083,30.795 96.517,30.795 C92.95,30.795 90.06,27.904 90.06,24.338 C90.06,20.772 92.95,17.881 96.517,17.881" id="Fill-14" fill="#2D2E2C"></path>
            <path d="M114.397,17.881 C117.963,17.881 120.854,20.772 120.854,24.338 C120.854,27.904 117.963,30.795 114.397,30.795 C110.831,30.795 107.94,27.904 107.94,24.338 C107.94,20.772 110.831,17.881 114.397,17.881" id="Fill-15" fill="#2D2E2C"></path>
            <path d="M132.278,17.881 C135.844,17.881 138.735,20.772 138.735,24.338 C138.735,27.904 135.844,30.795 132.278,30.795 C128.712,30.795 125.821,27.904 125.821,24.338 C125.821,20.772 128.712,17.881 132.278,17.881" id="Fill-16" fill="#2D2E2C"></path>
            <path d="M150.159,17.881 C153.725,17.881 156.616,20.772 156.616,24.338 C156.616,27.904 153.725,30.795 150.159,30.795 C146.593,30.795 143.702,27.904 143.702,24.338 C143.702,20.772 146.593,17.881 150.159,17.881" id="Fill-17" fill="#2D2E2C"></path>
            <path d="M168.536,17.881 C172.103,17.881 174.993,20.772 174.993,24.338 C174.993,27.904 172.103,30.795 168.536,30.795 C164.97,30.795 162.079,27.904 162.079,24.338 C162.079,20.772 164.97,17.881 168.536,17.881" id="Fill-18" fill="#2D2E2C"></path>
            <path d="M186.417,17.881 C189.983,17.881 192.874,20.772 192.874,24.338 C192.874,27.904 189.983,30.795 186.417,30.795 C182.851,30.795 179.96,27.904 179.96,24.338 C179.96,20.772 182.851,17.881 186.417,17.881" id="Fill-19" fill="#2D2E2C"></path>
            <path d="M204.298,17.881 C207.864,17.881 210.755,20.772 210.755,24.338 C210.755,27.904 207.864,30.795 204.298,30.795 C200.732,30.795 197.841,27.904 197.841,24.338 C197.841,20.772 200.732,17.881 204.298,17.881" id="Fill-20" fill="#2D2E2C"></path>
            <path d="M222.179,17.881 C225.745,17.881 228.636,20.772 228.636,24.338 C228.636,27.904 225.745,30.795 222.179,30.795 C218.613,30.795 215.722,27.904 215.722,24.338 C215.722,20.772 218.613,17.881 222.179,17.881" id="Fill-21" fill="#2D2E2C"></path>
            <path d="M240.06,17.881 C243.626,17.881 246.517,20.772 246.517,24.338 C246.517,27.904 243.626,30.795 240.06,30.795 C236.493,30.795 233.603,27.904 233.603,24.338 C233.603,20.772 236.493,17.881 240.06,17.881" id="Fill-22" fill="#2D2E2C"></path>
            <path d="M257.94,17.881 C261.506,17.881 264.397,20.772 264.397,24.338 C264.397,27.904 261.506,30.795 257.94,30.795 C254.374,30.795 251.483,27.904 251.483,24.338 C251.483,20.772 254.374,17.881 257.94,17.881" id="Fill-23" fill="#2D2E2C"></path>
            <path d="M275.821,17.881 C279.387,17.881 282.278,20.772 282.278,24.338 C282.278,27.904 279.387,30.795 275.821,30.795 C272.255,30.795 269.364,27.904 269.364,24.338 C269.364,20.772 272.255,17.881 275.821,17.881" id="Fill-24" fill="#2D2E2C"></path>
            <path d="M293.702,17.881 C297.268,17.881 300.159,20.772 300.159,24.338 C300.159,27.904 297.268,30.795 293.702,30.795 C290.136,30.795 287.245,27.904 287.245,24.338 C287.245,20.772 290.136,17.881 293.702,17.881" id="Fill-25" fill="#2D2E2C"></path>
            <path d="M311.583,17.881 C315.149,17.881 318.04,20.772 318.04,24.338 C318.04,27.904 315.149,30.795 311.583,30.795 C308.017,30.795 305.126,27.904 305.126,24.338 C305.126,20.772 308.017,17.881 311.583,17.881" id="Fill-26" fill="#2D2E2C"></path>
            <path d="M473.007,17.881 C476.573,17.881 479.464,20.772 479.464,24.338 C479.464,27.904 476.573,30.795 473.007,30.795 C469.44,30.795 466.55,27.904 466.55,24.338 C466.55,20.772 469.44,17.881 473.007,17.881" id="Fill-27" fill="#2D2E2C"></path>
            <path d="M490.887,17.881 C494.453,17.881 497.344,20.772 497.344,24.338 C497.344,27.904 494.453,30.795 490.887,30.795 C487.321,30.795 484.43,27.904 484.43,24.338 C484.43,20.772 487.321,17.881 490.887,17.881" id="Fill-28" fill="#2D2E2C"></path>
            <path d="M24.993,35.762 C28.559,35.762 31.45,38.652 31.45,42.219 C31.45,45.785 28.559,48.675 24.993,48.675 C21.427,48.675 18.536,45.785 18.536,42.219 C18.536,38.652 21.427,35.762 24.993,35.762" id="Fill-29" fill="#2D2E2C"></path>
            <path d="M42.874,35.762 C46.44,35.762 49.331,38.652 49.331,42.219 C49.331,45.785 46.44,48.675 42.874,48.675 C39.308,48.675 36.417,45.785 36.417,42.219 C36.417,38.652 39.308,35.762 42.874,35.762" id="Fill-30" fill="#2D2E2C"></path>
            <path d="M60.755,35.762 C64.321,35.762 67.212,38.652 67.212,42.219 C67.212,45.785 64.321,48.675 60.755,48.675 C57.189,48.675 54.298,45.785 54.298,42.219 C54.298,38.652 57.189,35.762 60.755,35.762" id="Fill-31" fill="#2D2E2C"></path>
            <path d="M78.636,35.762 C82.202,35.762 85.093,38.652 85.093,42.219 C85.093,45.785 82.202,48.675 78.636,48.675 C75.07,48.675 72.179,45.785 72.179,42.219 C72.179,38.652 75.07,35.762 78.636,35.762" id="Fill-32" fill="#2D2E2C"></path>
            <path d="M96.517,35.762 C100.083,35.762 102.974,38.652 102.974,42.219 C102.974,45.785 100.083,48.675 96.517,48.675 C92.95,48.675 90.06,45.785 90.06,42.219 C90.06,38.652 92.95,35.762 96.517,35.762" id="Fill-33" fill="#2D2E2C"></path>
            <path d="M114.397,35.762 C117.963,35.762 120.854,38.652 120.854,42.219 C120.854,45.785 117.963,48.675 114.397,48.675 C110.831,48.675 107.94,45.785 107.94,42.219 C107.94,38.652 110.831,35.762 114.397,35.762" id="Fill-34" fill="#2D2E2C"></path>
            <path d="M132.278,35.762 C135.844,35.762 138.735,38.652 138.735,42.219 C138.735,45.785 135.844,48.675 132.278,48.675 C128.712,48.675 125.821,45.785 125.821,42.219 C125.821,38.652 128.712,35.762 132.278,35.762" id="Fill-35" fill="#2D2E2C"></path>
            <path d="M150.159,35.762 C153.725,35.762 156.616,38.652 156.616,42.219 C156.616,45.785 153.725,48.675 150.159,48.675 C146.593,48.675 143.702,45.785 143.702,42.219 C143.702,38.652 146.593,35.762 150.159,35.762" id="Fill-36" fill="#2D2E2C"></path>
            <path d="M168.536,35.762 C172.103,35.762 174.993,38.652 174.993,42.219 C174.993,45.785 172.103,48.675 168.536,48.675 C164.97,48.675 162.079,45.785 162.079,42.219 C162.079,38.652 164.97,35.762 168.536,35.762" id="Fill-37" fill="#2D2E2C"></path>
            <path d="M186.417,35.762 C189.983,35.762 192.874,38.652 192.874,42.219 C192.874,45.785 189.983,48.675 186.417,48.675 C182.851,48.675 179.96,45.785 179.96,42.219 C179.96,38.652 182.851,35.762 186.417,35.762" id="Fill-38" fill="#2D2E2C"></path>
            <path d="M204.298,35.762 C207.864,35.762 210.755,38.652 210.755,42.219 C210.755,45.785 207.864,48.675 204.298,48.675 C200.732,48.675 197.841,45.785 197.841,42.219 C197.841,38.652 200.732,35.762 204.298,35.762" id="Fill-39" fill="#2D2E2C"></path>
            <path d="M222.179,35.762 C225.745,35.762 228.636,38.652 228.636,42.219 C228.636,45.785 225.745,48.675 222.179,48.675 C218.613,48.675 215.722,45.785 215.722,42.219 C215.722,38.652 218.613,35.762 222.179,35.762" id="Fill-40" fill="#2D2E2C"></path>
            <path d="M240.06,35.762 C243.626,35.762 246.517,38.652 246.517,42.219 C246.517,45.785 243.626,48.675 240.06,48.675 C236.493,48.675 233.603,45.785 233.603,42.219 C233.603,38.652 236.493,35.762 240.06,35.762" id="Fill-41" fill="#2D2E2C"></path>
            <path d="M257.94,35.762 C261.506,35.762 264.397,38.652 264.397,42.219 C264.397,45.785 261.506,48.675 257.94,48.675 C254.374,48.675 251.483,45.785 251.483,42.219 C251.483,38.652 254.374,35.762 257.94,35.762" id="Fill-42" fill="#2D2E2C"></path>
            <path d="M275.821,35.762 C279.387,35.762 282.278,38.652 282.278,42.219 C282.278,45.785 279.387,48.675 275.821,48.675 C272.255,48.675 269.364,45.785 269.364,42.219 C269.364,38.652 272.255,35.762 275.821,35.762" id="Fill-43" fill="#2D2E2C"></path>
            <path d="M293.702,35.762 C297.268,35.762 300.159,38.652 300.159,42.219 C300.159,45.785 297.268,48.675 293.702,48.675 C290.136,48.675 287.245,45.785 287.245,42.219 C287.245,38.652 290.136,35.762 293.702,35.762" id="Fill-44" fill="#2D2E2C"></path>
            <path d="M311.583,35.762 C315.149,35.762 318.04,38.652 318.04,42.219 C318.04,45.785 315.149,48.675 311.583,48.675 C308.017,48.675 305.126,45.785 305.126,42.219 C305.126,38.652 308.017,35.762 311.583,35.762" id="Fill-45" fill="#2D2E2C"></path>
            <path d="M329.464,35.762 C333.03,35.762 335.921,38.652 335.921,42.219 C335.921,45.785 333.03,48.675 329.464,48.675 C325.897,48.675 323.007,45.785 323.007,42.219 C323.007,38.652 325.897,35.762 329.464,35.762" id="Fill-46" fill="#2D2E2C"></path>
            <path d="M347.841,35.762 C351.407,35.762 354.298,38.652 354.298,42.219 C354.298,45.785 351.407,48.675 347.841,48.675 C344.275,48.675 341.384,45.785 341.384,42.219 C341.384,38.652 344.275,35.762 347.841,35.762" id="Fill-47" fill="#2D2E2C"></path>
            <path d="M437.245,35.762 C440.811,35.762 443.702,38.652 443.702,42.219 C443.702,45.785 440.811,48.675 437.245,48.675 C433.679,48.675 430.788,45.785 430.788,42.219 C430.788,38.652 433.679,35.762 437.245,35.762" id="Fill-48" fill="#2D2E2C"></path>
            <path d="M455.126,35.762 C458.692,35.762 461.583,38.652 461.583,42.219 C461.583,45.785 458.692,48.675 455.126,48.675 C451.56,48.675 448.669,45.785 448.669,42.219 C448.669,38.652 451.56,35.762 455.126,35.762" id="Fill-49" fill="#2D2E2C"></path>
            <path d="M473.007,35.762 C476.573,35.762 479.464,38.652 479.464,42.219 C479.464,45.785 476.573,48.675 473.007,48.675 C469.44,48.675 466.55,45.785 466.55,42.219 C466.55,38.652 469.44,35.762 473.007,35.762" id="Fill-50" fill="#2D2E2C"></path>
            <path d="M24.993,54.139 C28.559,54.139 31.45,57.03 31.45,60.596 C31.45,64.162 28.559,67.053 24.993,67.053 C21.427,67.053 18.536,64.162 18.536,60.596 C18.536,57.03 21.427,54.139 24.993,54.139" id="Fill-51" fill="#2D2E2C"></path>
            <path d="M42.874,54.139 C46.44,54.139 49.331,57.03 49.331,60.596 C49.331,64.162 46.44,67.053 42.874,67.053 C39.308,67.053 36.417,64.162 36.417,60.596 C36.417,57.03 39.308,54.139 42.874,54.139" id="Fill-52" fill="#2D2E2C"></path>
            <path d="M60.755,54.139 C64.321,54.139 67.212,57.03 67.212,60.596 C67.212,64.162 64.321,67.053 60.755,67.053 C57.189,67.053 54.298,64.162 54.298,60.596 C54.298,57.03 57.189,54.139 60.755,54.139" id="Fill-53" fill="#2D2E2C"></path>
            <path d="M78.636,54.139 C82.202,54.139 85.093,57.03 85.093,60.596 C85.093,64.162 82.202,67.053 78.636,67.053 C75.07,67.053 72.179,64.162 72.179,60.596 C72.179,57.03 75.07,54.139 78.636,54.139" id="Fill-54" fill="#2D2E2C"></path>
            <path d="M96.517,54.139 C100.083,54.139 102.974,57.03 102.974,60.596 C102.974,64.162 100.083,67.053 96.517,67.053 C92.95,67.053 90.06,64.162 90.06,60.596 C90.06,57.03 92.95,54.139 96.517,54.139" id="Fill-55" fill="#2D2E2C"></path>
            <path d="M114.397,54.139 C117.963,54.139 120.854,57.03 120.854,60.596 C120.854,64.162 117.963,67.053 114.397,67.053 C110.831,67.053 107.94,64.162 107.94,60.596 C107.94,57.03 110.831,54.139 114.397,54.139" id="Fill-56" fill="#2D2E2C"></path>
            <path d="M132.278,54.139 C135.844,54.139 138.735,57.03 138.735,60.596 C138.735,64.162 135.844,67.053 132.278,67.053 C128.712,67.053 125.821,64.162 125.821,60.596 C125.821,57.03 128.712,54.139 132.278,54.139" id="Fill-57" fill="#2D2E2C"></path>
            <path d="M150.159,54.139 C153.725,54.139 156.616,57.03 156.616,60.596 C156.616,64.162 153.725,67.053 150.159,67.053 C146.593,67.053 143.702,64.162 143.702,60.596 C143.702,57.03 146.593,54.139 150.159,54.139" id="Fill-58" fill="#2D2E2C"></path>
            <path d="M168.536,54.139 C172.103,54.139 174.993,57.03 174.993,60.596 C174.993,64.162 172.103,67.053 168.536,67.053 C164.97,67.053 162.079,64.162 162.079,60.596 C162.079,57.03 164.97,54.139 168.536,54.139" id="Fill-59" fill="#2D2E2C"></path>
            <path d="M186.417,54.139 C189.983,54.139 192.874,57.03 192.874,60.596 C192.874,64.162 189.983,67.053 186.417,67.053 C182.851,67.053 179.96,64.162 179.96,60.596 C179.96,57.03 182.851,54.139 186.417,54.139" id="Fill-60" fill="#2D2E2C"></path>
            <path d="M204.298,54.139 C207.864,54.139 210.755,57.03 210.755,60.596 C210.755,64.162 207.864,67.053 204.298,67.053 C200.732,67.053 197.841,64.162 197.841,60.596 C197.841,57.03 200.732,54.139 204.298,54.139" id="Fill-61" fill="#2D2E2C"></path>
            <path d="M222.179,54.139 C225.745,54.139 228.636,57.03 228.636,60.596 C228.636,64.162 225.745,67.053 222.179,67.053 C218.613,67.053 215.722,64.162 215.722,60.596 C215.722,57.03 218.613,54.139 222.179,54.139" id="Fill-62" fill="#2D2E2C"></path>
            <path d="M240.06,54.139 C243.626,54.139 246.517,57.03 246.517,60.596 C246.517,64.162 243.626,67.053 240.06,67.053 C236.493,67.053 233.603,64.162 233.603,60.596 C233.603,57.03 236.493,54.139 240.06,54.139" id="Fill-63" fill="#2D2E2C"></path>
            <path d="M257.94,54.139 C261.506,54.139 264.397,57.03 264.397,60.596 C264.397,64.162 261.506,67.053 257.94,67.053 C254.374,67.053 251.483,64.162 251.483,60.596 C251.483,57.03 254.374,54.139 257.94,54.139" id="Fill-64" fill="#2D2E2C"></path>
            <path d="M275.821,54.139 C279.387,54.139 282.278,57.03 282.278,60.596 C282.278,64.162 279.387,67.053 275.821,67.053 C272.255,67.053 269.364,64.162 269.364,60.596 C269.364,57.03 272.255,54.139 275.821,54.139" id="Fill-65" fill="#2D2E2C"></path>
            <path d="M293.702,54.139 C297.268,54.139 300.159,57.03 300.159,60.596 C300.159,64.162 297.268,67.053 293.702,67.053 C290.136,67.053 287.245,64.162 287.245,60.596 C287.245,57.03 290.136,54.139 293.702,54.139" id="Fill-66" fill="#2D2E2C"></path>
            <path d="M311.583,54.139 C315.149,54.139 318.04,57.03 318.04,60.596 C318.04,64.162 315.149,67.053 311.583,67.053 C308.017,67.053 305.126,64.162 305.126,60.596 C305.126,57.03 308.017,54.139 311.583,54.139" id="Fill-67" fill="#2D2E2C"></path>
            <path d="M329.464,54.139 C333.03,54.139 335.921,57.03 335.921,60.596 C335.921,64.162 333.03,67.053 329.464,67.053 C325.897,67.053 323.007,64.162 323.007,60.596 C323.007,57.03 325.897,54.139 329.464,54.139" id="Fill-68" fill="#2D2E2C"></path>
            <path d="M365.722,54.139 C369.288,54.139 372.179,57.03 372.179,60.596 C372.179,64.162 369.288,67.053 365.722,67.053 C362.156,67.053 359.265,64.162 359.265,60.596 C359.265,57.03 362.156,54.139 365.722,54.139" id="Fill-69" fill="#2D2E2C"></path>
            <path d="M437.245,54.139 C440.811,54.139 443.702,57.03 443.702,60.596 C443.702,64.162 440.811,67.053 437.245,67.053 C433.679,67.053 430.788,64.162 430.788,60.596 C430.788,57.03 433.679,54.139 437.245,54.139" id="Fill-70" fill="#2D2E2C"></path>
            <path d="M455.126,54.139 C458.692,54.139 461.583,57.03 461.583,60.596 C461.583,64.162 458.692,67.053 455.126,67.053 C451.56,67.053 448.669,64.162 448.669,60.596 C448.669,57.03 451.56,54.139 455.126,54.139" id="Fill-71" fill="#2D2E2C"></path>
            <path d="M473.007,54.139 C476.573,54.139 479.464,57.03 479.464,60.596 C479.464,64.162 476.573,67.053 473.007,67.053 C469.44,67.053 466.55,64.162 466.55,60.596 C466.55,57.03 469.44,54.139 473.007,54.139" id="Fill-72" fill="#2D2E2C"></path>
            <path d="M7.113,72.02 C10.679,72.02 13.57,74.911 13.57,78.477 C13.57,82.043 10.679,84.934 7.113,84.934 C3.547,84.934 0.656,82.043 0.656,78.477 C0.656,74.911 3.547,72.02 7.113,72.02" id="Fill-73" fill="#2D2E2C"></path>
            <path d="M24.993,72.02 C28.559,72.02 31.45,74.911 31.45,78.477 C31.45,82.043 28.559,84.934 24.993,84.934 C21.427,84.934 18.536,82.043 18.536,78.477 C18.536,74.911 21.427,72.02 24.993,72.02" id="Fill-74" fill="#2D2E2C"></path>
            <path d="M42.874,72.02 C46.44,72.02 49.331,74.911 49.331,78.477 C49.331,82.043 46.44,84.934 42.874,84.934 C39.308,84.934 36.417,82.043 36.417,78.477 C36.417,74.911 39.308,72.02 42.874,72.02" id="Fill-75" fill="#2D2E2C"></path>
            <path d="M60.755,72.02 C64.321,72.02 67.212,74.911 67.212,78.477 C67.212,82.043 64.321,84.934 60.755,84.934 C57.189,84.934 54.298,82.043 54.298,78.477 C54.298,74.911 57.189,72.02 60.755,72.02" id="Fill-76" fill="#2D2E2C"></path>
            <path d="M78.636,72.02 C82.202,72.02 85.093,74.911 85.093,78.477 C85.093,82.043 82.202,84.934 78.636,84.934 C75.07,84.934 72.179,82.043 72.179,78.477 C72.179,74.911 75.07,72.02 78.636,72.02" id="Fill-77" fill="#2D2E2C"></path>
            <path d="M96.517,72.02 C100.083,72.02 102.974,74.911 102.974,78.477 C102.974,82.043 100.083,84.934 96.517,84.934 C92.95,84.934 90.06,82.043 90.06,78.477 C90.06,74.911 92.95,72.02 96.517,72.02" id="Fill-78" fill="#2D2E2C"></path>
            <path d="M114.397,72.02 C117.963,72.02 120.854,74.911 120.854,78.477 C120.854,82.043 117.963,84.934 114.397,84.934 C110.831,84.934 107.94,82.043 107.94,78.477 C107.94,74.911 110.831,72.02 114.397,72.02" id="Fill-79" fill="#2D2E2C"></path>
            <path d="M132.278,72.02 C135.844,72.02 138.735,74.911 138.735,78.477 C138.735,82.043 135.844,84.934 132.278,84.934 C128.712,84.934 125.821,82.043 125.821,78.477 C125.821,74.911 128.712,72.02 132.278,72.02" id="Fill-80" fill="#2D2E2C"></path>
            <path d="M150.159,72.02 C153.725,72.02 156.616,74.911 156.616,78.477 C156.616,82.043 153.725,84.934 150.159,84.934 C146.593,84.934 143.702,82.043 143.702,78.477 C143.702,74.911 146.593,72.02 150.159,72.02" id="Fill-81" fill="#2D2E2C"></path>
            <path d="M168.536,72.02 C172.103,72.02 174.993,74.911 174.993,78.477 C174.993,82.043 172.103,84.934 168.536,84.934 C164.97,84.934 162.079,82.043 162.079,78.477 C162.079,74.911 164.97,72.02 168.536,72.02" id="Fill-82" fill="#2D2E2C"></path>
            <path d="M186.417,72.02 C189.983,72.02 192.874,74.911 192.874,78.477 C192.874,82.043 189.983,84.934 186.417,84.934 C182.851,84.934 179.96,82.043 179.96,78.477 C179.96,74.911 182.851,72.02 186.417,72.02" id="Fill-83" fill="#2D2E2C"></path>
            <path d="M204.298,72.02 C207.864,72.02 210.755,74.911 210.755,78.477 C210.755,82.043 207.864,84.934 204.298,84.934 C200.732,84.934 197.841,82.043 197.841,78.477 C197.841,74.911 200.732,72.02 204.298,72.02" id="Fill-84" fill="#2D2E2C"></path>
            <path d="M222.179,72.02 C225.745,72.02 228.636,74.911 228.636,78.477 C228.636,82.043 225.745,84.934 222.179,84.934 C218.613,84.934 215.722,82.043 215.722,78.477 C215.722,74.911 218.613,72.02 222.179,72.02" id="Fill-85" fill="#2D2E2C"></path>
            <path d="M240.06,72.02 C243.626,72.02 246.517,74.911 246.517,78.477 C246.517,82.043 243.626,84.934 240.06,84.934 C236.493,84.934 233.603,82.043 233.603,78.477 C233.603,74.911 236.493,72.02 240.06,72.02" id="Fill-86" fill="#2D2E2C"></path>
            <path d="M257.94,72.02 C261.506,72.02 264.397,74.911 264.397,78.477 C264.397,82.043 261.506,84.934 257.94,84.934 C254.374,84.934 251.483,82.043 251.483,78.477 C251.483,74.911 254.374,72.02 257.94,72.02" id="Fill-87" fill="#2D2E2C"></path>
            <path d="M275.821,72.02 C279.387,72.02 282.278,74.911 282.278,78.477 C282.278,82.043 279.387,84.934 275.821,84.934 C272.255,84.934 269.364,82.043 269.364,78.477 C269.364,74.911 272.255,72.02 275.821,72.02" id="Fill-88" fill="#2D2E2C"></path>
            <path d="M293.702,72.02 C297.268,72.02 300.159,74.911 300.159,78.477 C300.159,82.043 297.268,84.934 293.702,84.934 C290.136,84.934 287.245,82.043 287.245,78.477 C287.245,74.911 290.136,72.02 293.702,72.02" id="Fill-89" fill="#2D2E2C"></path>
            <path d="M311.583,72.02 C315.149,72.02 318.04,74.911 318.04,78.477 C318.04,82.043 315.149,84.934 311.583,84.934 C308.017,84.934 305.126,82.043 305.126,78.477 C305.126,74.911 308.017,72.02 311.583,72.02" id="Fill-90" fill="#2D2E2C"></path>
            <path d="M329.464,72.02 C333.03,72.02 335.921,74.911 335.921,78.477 C335.921,82.043 333.03,84.934 329.464,84.934 C325.897,84.934 323.007,82.043 323.007,78.477 C323.007,74.911 325.897,72.02 329.464,72.02" id="Fill-91" fill="#2D2E2C"></path>
            <path d="M347.841,72.02 C351.407,72.02 354.298,74.911 354.298,78.477 C354.298,82.043 351.407,84.934 347.841,84.934 C344.275,84.934 341.384,82.043 341.384,78.477 C341.384,74.911 344.275,72.02 347.841,72.02" id="Fill-92" fill="#2D2E2C"></path>
            <path d="M365.722,72.02 C369.288,72.02 372.179,74.911 372.179,78.477 C372.179,82.043 369.288,84.934 365.722,84.934 C362.156,84.934 359.265,82.043 359.265,78.477 C359.265,74.911 362.156,72.02 365.722,72.02" id="Fill-93" fill="#2D2E2C"></path>
            <path d="M383.603,72.02 C387.169,72.02 390.06,74.911 390.06,78.477 C390.06,82.043 387.169,84.934 383.603,84.934 C380.037,84.934 377.146,82.043 377.146,78.477 C377.146,74.911 380.037,72.02 383.603,72.02" id="Fill-94" fill="#2D2E2C"></path>
            <path d="M419.364,72.02 C422.93,72.02 425.821,74.911 425.821,78.477 C425.821,82.043 422.93,84.934 419.364,84.934 C415.798,84.934 412.907,82.043 412.907,78.477 C412.907,74.911 415.798,72.02 419.364,72.02" id="Fill-95" fill="#2D2E2C"></path>
            <path d="M437.245,72.02 C440.811,72.02 443.702,74.911 443.702,78.477 C443.702,82.043 440.811,84.934 437.245,84.934 C433.679,84.934 430.788,82.043 430.788,78.477 C430.788,74.911 433.679,72.02 437.245,72.02" id="Fill-96" fill="#2D2E2C"></path>
            <path d="M455.126,72.02 C458.692,72.02 461.583,74.911 461.583,78.477 C461.583,82.043 458.692,84.934 455.126,84.934 C451.56,84.934 448.669,82.043 448.669,78.477 C448.669,74.911 451.56,72.02 455.126,72.02" id="Fill-97" fill="#2D2E2C"></path>
            <path d="M473.007,72.02 C476.573,72.02 479.464,74.911 479.464,78.477 C479.464,82.043 476.573,84.934 473.007,84.934 C469.44,84.934 466.55,82.043 466.55,78.477 C466.55,74.911 469.44,72.02 473.007,72.02" id="Fill-98" fill="#2E2C2C"></path>
            <path d="M7.113,89.901 C10.679,89.901 13.57,92.792 13.57,96.358 C13.57,99.924 10.679,102.815 7.113,102.815 C3.547,102.815 0.656,99.924 0.656,96.358 C0.656,92.792 3.547,89.901 7.113,89.901" id="Fill-99" fill="#2D2E2C"></path>
            <path d="M24.993,89.901 C28.559,89.901 31.45,92.792 31.45,96.358 C31.45,99.924 28.559,102.815 24.993,102.815 C21.427,102.815 18.536,99.924 18.536,96.358 C18.536,92.792 21.427,89.901 24.993,89.901" id="Fill-100" fill="#2D2E2C"></path>
            <path d="M42.874,89.901 C46.44,89.901 49.331,92.792 49.331,96.358 C49.331,99.924 46.44,102.815 42.874,102.815 C39.308,102.815 36.417,99.924 36.417,96.358 C36.417,92.792 39.308,89.901 42.874,89.901" id="Fill-101" fill="#2D2E2C"></path>
            <path d="M60.755,89.901 C64.321,89.901 67.212,92.792 67.212,96.358 C67.212,99.924 64.321,102.815 60.755,102.815 C57.189,102.815 54.298,99.924 54.298,96.358 C54.298,92.792 57.189,89.901 60.755,89.901" id="Fill-102" fill="#2D2E2C"></path>
            <path d="M78.636,89.901 C82.202,89.901 85.093,92.792 85.093,96.358 C85.093,99.924 82.202,102.815 78.636,102.815 C75.07,102.815 72.179,99.924 72.179,96.358 C72.179,92.792 75.07,89.901 78.636,89.901" id="Fill-103" fill="#2D2E2C"></path>
            <path d="M96.517,89.901 C100.083,89.901 102.974,92.792 102.974,96.358 C102.974,99.924 100.083,102.815 96.517,102.815 C92.95,102.815 90.06,99.924 90.06,96.358 C90.06,92.792 92.95,89.901 96.517,89.901" id="Fill-104" fill="#2D2E2C"></path>
            <path d="M114.397,89.901 C117.963,89.901 120.854,92.792 120.854,96.358 C120.854,99.924 117.963,102.815 114.397,102.815 C110.831,102.815 107.94,99.924 107.94,96.358 C107.94,92.792 110.831,89.901 114.397,89.901" id="Fill-105" fill="#2D2E2C"></path>
            <path d="M132.278,89.901 C135.844,89.901 138.735,92.792 138.735,96.358 C138.735,99.924 135.844,102.815 132.278,102.815 C128.712,102.815 125.821,99.924 125.821,96.358 C125.821,92.792 128.712,89.901 132.278,89.901" id="Fill-106" fill="#2D2E2C"></path>
            <path d="M150.159,89.901 C153.725,89.901 156.616,92.792 156.616,96.358 C156.616,99.924 153.725,102.815 150.159,102.815 C146.593,102.815 143.702,99.924 143.702,96.358 C143.702,92.792 146.593,89.901 150.159,89.901" id="Fill-107" fill="#2D2E2C"></path>
            <path d="M168.536,89.901 C172.103,89.901 174.993,92.792 174.993,96.358 C174.993,99.924 172.103,102.815 168.536,102.815 C164.97,102.815 162.079,99.924 162.079,96.358 C162.079,92.792 164.97,89.901 168.536,89.901" id="Fill-108" fill="#2D2E2C"></path>
            <path d="M186.417,89.901 C189.983,89.901 192.874,92.792 192.874,96.358 C192.874,99.924 189.983,102.815 186.417,102.815 C182.851,102.815 179.96,99.924 179.96,96.358 C179.96,92.792 182.851,89.901 186.417,89.901" id="Fill-109" fill="#2D2E2C"></path>
            <path d="M204.298,89.901 C207.864,89.901 210.755,92.792 210.755,96.358 C210.755,99.924 207.864,102.815 204.298,102.815 C200.732,102.815 197.841,99.924 197.841,96.358 C197.841,92.792 200.732,89.901 204.298,89.901" id="Fill-110" fill="#2D2E2C"></path>
            <path d="M222.179,89.901 C225.745,89.901 228.636,92.792 228.636,96.358 C228.636,99.924 225.745,102.815 222.179,102.815 C218.613,102.815 215.722,99.924 215.722,96.358 C215.722,92.792 218.613,89.901 222.179,89.901" id="Fill-111" fill="#2D2E2C"></path>
            <path d="M240.06,89.901 C243.626,89.901 246.517,92.792 246.517,96.358 C246.517,99.924 243.626,102.815 240.06,102.815 C236.493,102.815 233.603,99.924 233.603,96.358 C233.603,92.792 236.493,89.901 240.06,89.901" id="Fill-112" fill="#2D2E2C"></path>
            <path d="M257.94,89.901 C261.506,89.901 264.397,92.792 264.397,96.358 C264.397,99.924 261.506,102.815 257.94,102.815 C254.374,102.815 251.483,99.924 251.483,96.358 C251.483,92.792 254.374,89.901 257.94,89.901" id="Fill-113" fill="#2D2E2C"></path>
            <path d="M275.821,89.901 C279.387,89.901 282.278,92.792 282.278,96.358 C282.278,99.924 279.387,102.815 275.821,102.815 C272.255,102.815 269.364,99.924 269.364,96.358 C269.364,92.792 272.255,89.901 275.821,89.901" id="Fill-114" fill="#2D2E2C"></path>
            <path d="M293.702,89.901 C297.268,89.901 300.159,92.792 300.159,96.358 C300.159,99.924 297.268,102.815 293.702,102.815 C290.136,102.815 287.245,99.924 287.245,96.358 C287.245,92.792 290.136,89.901 293.702,89.901" id="Fill-115" fill="#2D2E2C"></path>
            <path d="M311.583,89.901 C315.149,89.901 318.04,92.792 318.04,96.358 C318.04,99.924 315.149,102.815 311.583,102.815 C308.017,102.815 305.126,99.924 305.126,96.358 C305.126,92.792 308.017,89.901 311.583,89.901" id="Fill-116" fill="#2D2E2C"></path>
            <path d="M329.464,89.901 C333.03,89.901 335.921,92.792 335.921,96.358 C335.921,99.924 333.03,102.815 329.464,102.815 C325.897,102.815 323.007,99.924 323.007,96.358 C323.007,92.792 325.897,89.901 329.464,89.901" id="Fill-117" fill="#2D2E2C"></path>
            <path d="M347.841,89.901 C351.407,89.901 354.298,92.792 354.298,96.358 C354.298,99.924 351.407,102.815 347.841,102.815 C344.275,102.815 341.384,99.924 341.384,96.358 C341.384,92.792 344.275,89.901 347.841,89.901" id="Fill-118" fill="#2D2E2C"></path>
            <path d="M365.722,89.901 C369.288,89.901 372.179,92.792 372.179,96.358 C372.179,99.924 369.288,102.815 365.722,102.815 C362.156,102.815 359.265,99.924 359.265,96.358 C359.265,92.792 362.156,89.901 365.722,89.901" id="Fill-119" fill="#2D2E2C"></path>
            <path d="M383.603,89.901 C387.169,89.901 390.06,92.792 390.06,96.358 C390.06,99.924 387.169,102.815 383.603,102.815 C380.037,102.815 377.146,99.924 377.146,96.358 C377.146,92.792 380.037,89.901 383.603,89.901" id="Fill-120" fill="#2D2E2C"></path>
            <path d="M401.483,89.901 C405.049,89.901 407.94,92.792 407.94,96.358 C407.94,99.924 405.049,102.815 401.483,102.815 C397.917,102.815 395.026,99.924 395.026,96.358 C395.026,92.792 397.917,89.901 401.483,89.901" id="Fill-121" fill="#2D2E2C"></path>
            <path d="M419.364,89.901 C422.93,89.901 425.821,92.792 425.821,96.358 C425.821,99.924 422.93,102.815 419.364,102.815 C415.798,102.815 412.907,99.924 412.907,96.358 C412.907,92.792 415.798,89.901 419.364,89.901" id="Fill-122" fill="#2D2E2C"></path>
            <path d="M437.245,89.901 C440.811,89.901 443.702,92.792 443.702,96.358 C443.702,99.924 440.811,102.815 437.245,102.815 C433.679,102.815 430.788,99.924 430.788,96.358 C430.788,92.792 433.679,89.901 437.245,89.901" id="Fill-123" fill="#2D2E2C"></path>
            <path d="M455.126,89.901 C458.692,89.901 461.583,92.792 461.583,96.358 C461.583,99.924 458.692,102.815 455.126,102.815 C451.56,102.815 448.669,99.924 448.669,96.358 C448.669,92.792 451.56,89.901 455.126,89.901" id="Fill-124" fill="#2E2C2C"></path>
            <path d="M7.113,107.781 C10.679,107.781 13.57,110.672 13.57,114.238 C13.57,117.804 10.679,120.695 7.113,120.695 C3.547,120.695 0.656,117.804 0.656,114.238 C0.656,110.672 3.547,107.781 7.113,107.781" id="Fill-125" fill="#2D2E2C"></path>
            <path d="M24.993,107.781 C28.559,107.781 31.45,110.672 31.45,114.238 C31.45,117.804 28.559,120.695 24.993,120.695 C21.427,120.695 18.536,117.804 18.536,114.238 C18.536,110.672 21.427,107.781 24.993,107.781" id="Fill-126" fill="#2D2E2C"></path>
            <path d="M42.874,107.781 C46.44,107.781 49.331,110.672 49.331,114.238 C49.331,117.804 46.44,120.695 42.874,120.695 C39.308,120.695 36.417,117.804 36.417,114.238 C36.417,110.672 39.308,107.781 42.874,107.781" id="Fill-127" fill="#2D2E2C"></path>
            <path d="M60.755,107.781 C64.321,107.781 67.212,110.672 67.212,114.238 C67.212,117.804 64.321,120.695 60.755,120.695 C57.189,120.695 54.298,117.804 54.298,114.238 C54.298,110.672 57.189,107.781 60.755,107.781" id="Fill-128" fill="#2D2E2C"></path>
            <path d="M78.636,107.781 C82.202,107.781 85.093,110.672 85.093,114.238 C85.093,117.804 82.202,120.695 78.636,120.695 C75.07,120.695 72.179,117.804 72.179,114.238 C72.179,110.672 75.07,107.781 78.636,107.781" id="Fill-129" fill="#2D2E2C"></path>
            <path d="M96.517,107.781 C100.083,107.781 102.974,110.672 102.974,114.238 C102.974,117.804 100.083,120.695 96.517,120.695 C92.95,120.695 90.06,117.804 90.06,114.238 C90.06,110.672 92.95,107.781 96.517,107.781" id="Fill-130" fill="#2D2E2C"></path>
            <path d="M114.397,107.781 C117.963,107.781 120.854,110.672 120.854,114.238 C120.854,117.804 117.963,120.695 114.397,120.695 C110.831,120.695 107.94,117.804 107.94,114.238 C107.94,110.672 110.831,107.781 114.397,107.781" id="Fill-131" fill="#2D2E2C"></path>
            <path d="M132.278,107.781 C135.844,107.781 138.735,110.672 138.735,114.238 C138.735,117.804 135.844,120.695 132.278,120.695 C128.712,120.695 125.821,117.804 125.821,114.238 C125.821,110.672 128.712,107.781 132.278,107.781" id="Fill-132" fill="#2D2E2C"></path>
            <path d="M150.159,107.781 C153.725,107.781 156.616,110.672 156.616,114.238 C156.616,117.804 153.725,120.695 150.159,120.695 C146.593,120.695 143.702,117.804 143.702,114.238 C143.702,110.672 146.593,107.781 150.159,107.781" id="Fill-133" fill="#2D2E2C"></path>
            <path d="M168.536,107.781 C172.103,107.781 174.993,110.672 174.993,114.238 C174.993,117.804 172.103,120.695 168.536,120.695 C164.97,120.695 162.079,117.804 162.079,114.238 C162.079,110.672 164.97,107.781 168.536,107.781" id="Fill-134" fill="#2E2C2C"></path>
            <path d="M186.417,107.781 C189.983,107.781 192.874,110.672 192.874,114.238 C192.874,117.804 189.983,120.695 186.417,120.695 C182.851,120.695 179.96,117.804 179.96,114.238 C179.96,110.672 182.851,107.781 186.417,107.781" id="Fill-135" fill="#2D2E2C"></path>
            <path d="M204.298,107.781 C207.864,107.781 210.755,110.672 210.755,114.238 C210.755,117.804 207.864,120.695 204.298,120.695 C200.732,120.695 197.841,117.804 197.841,114.238 C197.841,110.672 200.732,107.781 204.298,107.781" id="Fill-136" fill="#2D2E2C"></path>
            <path d="M222.179,107.781 C225.745,107.781 228.636,110.672 228.636,114.238 C228.636,117.804 225.745,120.695 222.179,120.695 C218.613,120.695 215.722,117.804 215.722,114.238 C215.722,110.672 218.613,107.781 222.179,107.781" id="Fill-137" fill="#2D2E2C"></path>
            <path d="M240.06,107.781 C243.626,107.781 246.517,110.672 246.517,114.238 C246.517,117.804 243.626,120.695 240.06,120.695 C236.493,120.695 233.603,117.804 233.603,114.238 C233.603,110.672 236.493,107.781 240.06,107.781" id="Fill-138" fill="#2D2E2C"></path>
            <path d="M257.94,107.781 C261.506,107.781 264.397,110.672 264.397,114.238 C264.397,117.804 261.506,120.695 257.94,120.695 C254.374,120.695 251.483,117.804 251.483,114.238 C251.483,110.672 254.374,107.781 257.94,107.781" id="Fill-139" fill="#2D2E2C"></path>
            <path d="M275.821,107.781 C279.387,107.781 282.278,110.672 282.278,114.238 C282.278,117.804 279.387,120.695 275.821,120.695 C272.255,120.695 269.364,117.804 269.364,114.238 C269.364,110.672 272.255,107.781 275.821,107.781" id="Fill-140" fill="#2D2E2C"></path>
            <path d="M293.702,107.781 C297.268,107.781 300.159,110.672 300.159,114.238 C300.159,117.804 297.268,120.695 293.702,120.695 C290.136,120.695 287.245,117.804 287.245,114.238 C287.245,110.672 290.136,107.781 293.702,107.781" id="Fill-141" fill="#2D2E2C"></path>
            <path d="M311.583,107.781 C315.149,107.781 318.04,110.672 318.04,114.238 C318.04,117.804 315.149,120.695 311.583,120.695 C308.017,120.695 305.126,117.804 305.126,114.238 C305.126,110.672 308.017,107.781 311.583,107.781" id="Fill-142" fill="#2D2E2C"></path>
            <path d="M329.464,107.781 C333.03,107.781 335.921,110.672 335.921,114.238 C335.921,117.804 333.03,120.695 329.464,120.695 C325.897,120.695 323.007,117.804 323.007,114.238 C323.007,110.672 325.897,107.781 329.464,107.781" id="Fill-143" fill="#2D2E2C"></path>
            <path d="M347.841,107.781 C351.407,107.781 354.298,110.672 354.298,114.238 C354.298,117.804 351.407,120.695 347.841,120.695 C344.275,120.695 341.384,117.804 341.384,114.238 C341.384,110.672 344.275,107.781 347.841,107.781" id="Fill-144" fill="#2D2E2C"></path>
            <path d="M365.722,107.781 C369.288,107.781 372.179,110.672 372.179,114.238 C372.179,117.804 369.288,120.695 365.722,120.695 C362.156,120.695 359.265,117.804 359.265,114.238 C359.265,110.672 362.156,107.781 365.722,107.781" id="Fill-145" fill="#2D2E2C"></path>
            <path d="M383.603,107.781 C387.169,107.781 390.06,110.672 390.06,114.238 C390.06,117.804 387.169,120.695 383.603,120.695 C380.037,120.695 377.146,117.804 377.146,114.238 C377.146,110.672 380.037,107.781 383.603,107.781" id="Fill-146" fill="#2D2E2C"></path>
            <path d="M401.483,107.781 C405.049,107.781 407.94,110.672 407.94,114.238 C407.94,117.804 405.049,120.695 401.483,120.695 C397.917,120.695 395.026,117.804 395.026,114.238 C395.026,110.672 397.917,107.781 401.483,107.781" id="Fill-147" fill="#2D2E2C"></path>
            <path d="M419.364,107.781 C422.93,107.781 425.821,110.672 425.821,114.238 C425.821,117.804 422.93,120.695 419.364,120.695 C415.798,120.695 412.907,117.804 412.907,114.238 C412.907,110.672 415.798,107.781 419.364,107.781" id="Fill-148" fill="#2D2E2C"></path>
            <path d="M437.245,107.781 C440.811,107.781 443.702,110.672 443.702,114.238 C443.702,117.804 440.811,120.695 437.245,120.695 C433.679,120.695 430.788,117.804 430.788,114.238 C430.788,110.672 433.679,107.781 437.245,107.781" id="Fill-149" fill="#2D2E2C"></path>
            <path d="M455.126,107.781 C458.692,107.781 461.583,110.672 461.583,114.238 C461.583,117.804 458.692,120.695 455.126,120.695 C451.56,120.695 448.669,117.804 448.669,114.238 C448.669,110.672 451.56,107.781 455.126,107.781" id="Fill-150" fill="#2D2E2C"></path>
            <path d="M24.993,125.662 C28.559,125.662 31.45,128.553 31.45,132.119 C31.45,135.685 28.559,138.576 24.993,138.576 C21.427,138.576 18.536,135.685 18.536,132.119 C18.536,128.553 21.427,125.662 24.993,125.662" id="Fill-151" fill="#2E2C2C"></path>
            <path d="M42.874,125.662 C46.44,125.662 49.331,128.553 49.331,132.119 C49.331,135.685 46.44,138.576 42.874,138.576 C39.308,138.576 36.417,135.685 36.417,132.119 C36.417,128.553 39.308,125.662 42.874,125.662" id="Fill-152" fill="#2D2E2C"></path>
            <path d="M60.755,125.662 C64.321,125.662 67.212,128.553 67.212,132.119 C67.212,135.685 64.321,138.576 60.755,138.576 C57.189,138.576 54.298,135.685 54.298,132.119 C54.298,128.553 57.189,125.662 60.755,125.662" id="Fill-153" fill="#2D2E2C"></path>
            <path d="M78.636,125.662 C82.202,125.662 85.093,128.553 85.093,132.119 C85.093,135.685 82.202,138.576 78.636,138.576 C75.07,138.576 72.179,135.685 72.179,132.119 C72.179,128.553 75.07,125.662 78.636,125.662" id="Fill-154" fill="#2D2E2C"></path>
            <path d="M96.517,125.662 C100.083,125.662 102.974,128.553 102.974,132.119 C102.974,135.685 100.083,138.576 96.517,138.576 C92.95,138.576 90.06,135.685 90.06,132.119 C90.06,128.553 92.95,125.662 96.517,125.662" id="Fill-155" fill="#2D2E2C"></path>
            <path d="M114.397,125.662 C117.963,125.662 120.854,128.553 120.854,132.119 C120.854,135.685 117.963,138.576 114.397,138.576 C110.831,138.576 107.94,135.685 107.94,132.119 C107.94,128.553 110.831,125.662 114.397,125.662" id="Fill-156" fill="#2D2E2C"></path>
            <path d="M132.278,125.662 C135.844,125.662 138.735,128.553 138.735,132.119 C138.735,135.685 135.844,138.576 132.278,138.576 C128.712,138.576 125.821,135.685 125.821,132.119 C125.821,128.553 128.712,125.662 132.278,125.662" id="Fill-157" fill="#2D2E2C"></path>
            <path d="M150.159,125.662 C153.725,125.662 156.616,128.553 156.616,132.119 C156.616,135.685 153.725,138.576 150.159,138.576 C146.593,138.576 143.702,135.685 143.702,132.119 C143.702,128.553 146.593,125.662 150.159,125.662" id="Fill-158" fill="#2D2E2C"></path>
            <path d="M168.536,125.662 C172.103,125.662 174.993,128.553 174.993,132.119 C174.993,135.685 172.103,138.576 168.536,138.576 C164.97,138.576 162.079,135.685 162.079,132.119 C162.079,128.553 164.97,125.662 168.536,125.662" id="Fill-159" fill="#2D2E2C"></path>
            <path d="M186.417,125.662 C189.983,125.662 192.874,128.553 192.874,132.119 C192.874,135.685 189.983,138.576 186.417,138.576 C182.851,138.576 179.96,135.685 179.96,132.119 C179.96,128.553 182.851,125.662 186.417,125.662" id="Fill-160" fill="#2D2E2C"></path>
            <path d="M204.298,125.662 C207.864,125.662 210.755,128.553 210.755,132.119 C210.755,135.685 207.864,138.576 204.298,138.576 C200.732,138.576 197.841,135.685 197.841,132.119 C197.841,128.553 200.732,125.662 204.298,125.662" id="Fill-161" fill="#2D2E2C"></path>
            <path d="M222.179,125.662 C225.745,125.662 228.636,128.553 228.636,132.119 C228.636,135.685 225.745,138.576 222.179,138.576 C218.613,138.576 215.722,135.685 215.722,132.119 C215.722,128.553 218.613,125.662 222.179,125.662" id="Fill-162" fill="#2D2E2C"></path>
            <path d="M240.06,125.662 C243.626,125.662 246.517,128.553 246.517,132.119 C246.517,135.685 243.626,138.576 240.06,138.576 C236.493,138.576 233.603,135.685 233.603,132.119 C233.603,128.553 236.493,125.662 240.06,125.662" id="Fill-163" fill="#2D2E2C"></path>
            <path d="M257.94,125.662 C261.506,125.662 264.397,128.553 264.397,132.119 C264.397,135.685 261.506,138.576 257.94,138.576 C254.374,138.576 251.483,135.685 251.483,132.119 C251.483,128.553 254.374,125.662 257.94,125.662" id="Fill-164" fill="#2D2E2C"></path>
            <path d="M275.821,125.662 C279.387,125.662 282.278,128.553 282.278,132.119 C282.278,135.685 279.387,138.576 275.821,138.576 C272.255,138.576 269.364,135.685 269.364,132.119 C269.364,128.553 272.255,125.662 275.821,125.662" id="Fill-165" fill="#2D2E2C"></path>
            <path d="M293.702,125.662 C297.268,125.662 300.159,128.553 300.159,132.119 C300.159,135.685 297.268,138.576 293.702,138.576 C290.136,138.576 287.245,135.685 287.245,132.119 C287.245,128.553 290.136,125.662 293.702,125.662" id="Fill-166" fill="#2D2E2C"></path>
            <path d="M311.583,125.662 C315.149,125.662 318.04,128.553 318.04,132.119 C318.04,135.685 315.149,138.576 311.583,138.576 C308.017,138.576 305.126,135.685 305.126,132.119 C305.126,128.553 308.017,125.662 311.583,125.662" id="Fill-167" fill="#2D2E2C"></path>
            <path d="M329.464,125.662 C333.03,125.662 335.921,128.553 335.921,132.119 C335.921,135.685 333.03,138.576 329.464,138.576 C325.897,138.576 323.007,135.685 323.007,132.119 C323.007,128.553 325.897,125.662 329.464,125.662" id="Fill-168" fill="#2D2E2C"></path>
            <path d="M347.841,125.662 C351.407,125.662 354.298,128.553 354.298,132.119 C354.298,135.685 351.407,138.576 347.841,138.576 C344.275,138.576 341.384,135.685 341.384,132.119 C341.384,128.553 344.275,125.662 347.841,125.662" id="Fill-169" fill="#2D2E2C"></path>
            <path d="M365.722,125.662 C369.288,125.662 372.179,128.553 372.179,132.119 C372.179,135.685 369.288,138.576 365.722,138.576 C362.156,138.576 359.265,135.685 359.265,132.119 C359.265,128.553 362.156,125.662 365.722,125.662" id="Fill-170" fill="#2D2E2C"></path>
            <path d="M383.603,125.662 C387.169,125.662 390.06,128.553 390.06,132.119 C390.06,135.685 387.169,138.576 383.603,138.576 C380.037,138.576 377.146,135.685 377.146,132.119 C377.146,128.553 380.037,125.662 383.603,125.662" id="Fill-171" fill="#2D2E2C"></path>
            <path d="M401.483,125.662 C405.049,125.662 407.94,128.553 407.94,132.119 C407.94,135.685 405.049,138.576 401.483,138.576 C397.917,138.576 395.026,135.685 395.026,132.119 C395.026,128.553 397.917,125.662 401.483,125.662" id="Fill-172" fill="#2D2E2C"></path>
            <path d="M419.364,125.662 C422.93,125.662 425.821,128.553 425.821,132.119 C425.821,135.685 422.93,138.576 419.364,138.576 C415.798,138.576 412.907,135.685 412.907,132.119 C412.907,128.553 415.798,125.662 419.364,125.662" id="Fill-173" fill="#2D2E2C"></path>
            <path d="M437.245,125.662 C440.811,125.662 443.702,128.553 443.702,132.119 C443.702,135.685 440.811,138.576 437.245,138.576 C433.679,138.576 430.788,135.685 430.788,132.119 C430.788,128.553 433.679,125.662 437.245,125.662" id="Fill-174" fill="#2D2E2C"></path>
            <path d="M455.126,125.662 C458.692,125.662 461.583,128.553 461.583,132.119 C461.583,135.685 458.692,138.576 455.126,138.576 C451.56,138.576 448.669,135.685 448.669,132.119 C448.669,128.553 451.56,125.662 455.126,125.662" id="Fill-175" fill="#2D2E2C"></path>
            <path d="M24.993,143.543 C28.559,143.543 31.45,146.434 31.45,150 C31.45,153.566 28.559,156.457 24.993,156.457 C21.427,156.457 18.536,153.566 18.536,150 C18.536,146.434 21.427,143.543 24.993,143.543" id="Fill-176" fill="#2D2E2C"></path>
            <path d="M42.874,143.543 C46.44,143.543 49.331,146.434 49.331,150 C49.331,153.566 46.44,156.457 42.874,156.457 C39.308,156.457 36.417,153.566 36.417,150 C36.417,146.434 39.308,143.543 42.874,143.543" id="Fill-177" fill="#2D2E2C"></path>
            <path d="M60.755,143.543 C64.321,143.543 67.212,146.434 67.212,150 C67.212,153.566 64.321,156.457 60.755,156.457 C57.189,156.457 54.298,153.566 54.298,150 C54.298,146.434 57.189,143.543 60.755,143.543" id="Fill-178" fill="#2D2E2C"></path>
            <path d="M78.636,143.543 C82.202,143.543 85.093,146.434 85.093,150 C85.093,153.566 82.202,156.457 78.636,156.457 C75.07,156.457 72.179,153.566 72.179,150 C72.179,146.434 75.07,143.543 78.636,143.543" id="Fill-179" fill="#2D2E2C"></path>
            <path d="M96.517,143.543 C100.083,143.543 102.974,146.434 102.974,150 C102.974,153.566 100.083,156.457 96.517,156.457 C92.95,156.457 90.06,153.566 90.06,150 C90.06,146.434 92.95,143.543 96.517,143.543" id="Fill-180" fill="#2D2E2C"></path>
            <path d="M114.397,143.543 C117.963,143.543 120.854,146.434 120.854,150 C120.854,153.566 117.963,156.457 114.397,156.457 C110.831,156.457 107.94,153.566 107.94,150 C107.94,146.434 110.831,143.543 114.397,143.543" id="Fill-181" fill="#2D2E2C"></path>
            <path d="M132.278,143.543 C135.844,143.543 138.735,146.434 138.735,150 C138.735,153.566 135.844,156.457 132.278,156.457 C128.712,156.457 125.821,153.566 125.821,150 C125.821,146.434 128.712,143.543 132.278,143.543" id="Fill-182" fill="#2D2E2C"></path>
            <path d="M150.159,143.543 C153.725,143.543 156.616,146.434 156.616,150 C156.616,153.566 153.725,156.457 150.159,156.457 C146.593,156.457 143.702,153.566 143.702,150 C143.702,146.434 146.593,143.543 150.159,143.543" id="Fill-183" fill="#2D2E2C"></path>
            <path d="M168.536,143.543 C172.103,143.543 174.993,146.434 174.993,150 C174.993,153.566 172.103,156.457 168.536,156.457 C164.97,156.457 162.079,153.566 162.079,150 C162.079,146.434 164.97,143.543 168.536,143.543" id="Fill-184" fill="#2D2E2C"></path>
            <path d="M186.417,143.543 C189.983,143.543 192.874,146.434 192.874,150 C192.874,153.566 189.983,156.457 186.417,156.457 C182.851,156.457 179.96,153.566 179.96,150 C179.96,146.434 182.851,143.543 186.417,143.543" id="Fill-185" fill="#2D2E2C"></path>
            <path d="M204.298,143.543 C207.864,143.543 210.755,146.434 210.755,150 C210.755,153.566 207.864,156.457 204.298,156.457 C200.732,156.457 197.841,153.566 197.841,150 C197.841,146.434 200.732,143.543 204.298,143.543" id="Fill-186" fill="#2D2E2C"></path>
            <path d="M222.179,143.543 C225.745,143.543 228.636,146.434 228.636,150 C228.636,153.566 225.745,156.457 222.179,156.457 C218.613,156.457 215.722,153.566 215.722,150 C215.722,146.434 218.613,143.543 222.179,143.543" id="Fill-187" fill="#2D2E2C"></path>
            <path d="M240.06,143.543 C243.626,143.543 246.517,146.434 246.517,150 C246.517,153.566 243.626,156.457 240.06,156.457 C236.493,156.457 233.603,153.566 233.603,150 C233.603,146.434 236.493,143.543 240.06,143.543" id="Fill-188" fill="#2D2E2C"></path>
            <path d="M257.94,143.543 C261.506,143.543 264.397,146.434 264.397,150 C264.397,153.566 261.506,156.457 257.94,156.457 C254.374,156.457 251.483,153.566 251.483,150 C251.483,146.434 254.374,143.543 257.94,143.543" id="Fill-189" fill="#2D2E2C"></path>
            <path d="M275.821,143.543 C279.387,143.543 282.278,146.434 282.278,150 C282.278,153.566 279.387,156.457 275.821,156.457 C272.255,156.457 269.364,153.566 269.364,150 C269.364,146.434 272.255,143.543 275.821,143.543" id="Fill-190" fill="#2D2E2C"></path>
            <path d="M293.702,143.543 C297.268,143.543 300.159,146.434 300.159,150 C300.159,153.566 297.268,156.457 293.702,156.457 C290.136,156.457 287.245,153.566 287.245,150 C287.245,146.434 290.136,143.543 293.702,143.543" id="Fill-191" fill="#2D2E2C"></path>
            <path d="M311.583,143.543 C315.149,143.543 318.04,146.434 318.04,150 C318.04,153.566 315.149,156.457 311.583,156.457 C308.017,156.457 305.126,153.566 305.126,150 C305.126,146.434 308.017,143.543 311.583,143.543" id="Fill-192" fill="#2D2E2C"></path>
            <path d="M329.464,143.543 C333.03,143.543 335.921,146.434 335.921,150 C335.921,153.566 333.03,156.457 329.464,156.457 C325.897,156.457 323.007,153.566 323.007,150 C323.007,146.434 325.897,143.543 329.464,143.543" id="Fill-193" fill="#2D2E2C"></path>
            <path d="M347.841,143.543 C351.407,143.543 354.298,146.434 354.298,150 C354.298,153.566 351.407,156.457 347.841,156.457 C344.275,156.457 341.384,153.566 341.384,150 C341.384,146.434 344.275,143.543 347.841,143.543" id="Fill-194" fill="#2D2E2C"></path>
            <path d="M365.722,143.543 C369.288,143.543 372.179,146.434 372.179,150 C372.179,153.566 369.288,156.457 365.722,156.457 C362.156,156.457 359.265,153.566 359.265,150 C359.265,146.434 362.156,143.543 365.722,143.543" id="Fill-195" fill="#2D2E2C"></path>
            <path d="M383.603,143.543 C387.169,143.543 390.06,146.434 390.06,150 C390.06,153.566 387.169,156.457 383.603,156.457 C380.037,156.457 377.146,153.566 377.146,150 C377.146,146.434 380.037,143.543 383.603,143.543" id="Fill-196" fill="#2D2E2C"></path>
            <path d="M401.483,143.543 C405.049,143.543 407.94,146.434 407.94,150 C407.94,153.566 405.049,156.457 401.483,156.457 C397.917,156.457 395.026,153.566 395.026,150 C395.026,146.434 397.917,143.543 401.483,143.543" id="Fill-197" fill="#2D2E2C"></path>
            <path d="M419.364,143.543 C422.93,143.543 425.821,146.434 425.821,150 C425.821,153.566 422.93,156.457 419.364,156.457 C415.798,156.457 412.907,153.566 412.907,150 C412.907,146.434 415.798,143.543 419.364,143.543" id="Fill-198" fill="#2D2E2C"></path>
            <path d="M437.245,143.543 C440.811,143.543 443.702,146.434 443.702,150 C443.702,153.566 440.811,156.457 437.245,156.457 C433.679,156.457 430.788,153.566 430.788,150 C430.788,146.434 433.679,143.543 437.245,143.543" id="Fill-199" fill="#2D2E2C"></path>
            <path d="M455.126,143.543 C458.692,143.543 461.583,146.434 461.583,150 C461.583,153.566 458.692,156.457 455.126,156.457 C451.56,156.457 448.669,153.566 448.669,150 C448.669,146.434 451.56,143.543 455.126,143.543" id="Fill-200" fill="#2D2E2C"></path>
            <path d="M42.874,161.424 C46.44,161.424 49.331,164.315 49.331,167.881 C49.331,171.447 46.44,174.338 42.874,174.338 C39.308,174.338 36.417,171.447 36.417,167.881 C36.417,164.315 39.308,161.424 42.874,161.424" id="Fill-201" fill="#2D2E2C"></path>
            <path d="M60.755,161.424 C64.321,161.424 67.212,164.315 67.212,167.881 C67.212,171.447 64.321,174.338 60.755,174.338 C57.189,174.338 54.298,171.447 54.298,167.881 C54.298,164.315 57.189,161.424 60.755,161.424" id="Fill-202" fill="#2D2E2C"></path>
            <path d="M78.636,161.424 C82.202,161.424 85.093,164.315 85.093,167.881 C85.093,171.447 82.202,174.338 78.636,174.338 C75.07,174.338 72.179,171.447 72.179,167.881 C72.179,164.315 75.07,161.424 78.636,161.424" id="Fill-203" fill="#2D2E2C"></path>
            <path d="M96.517,161.424 C100.083,161.424 102.974,164.315 102.974,167.881 C102.974,171.447 100.083,174.338 96.517,174.338 C92.95,174.338 90.06,171.447 90.06,167.881 C90.06,164.315 92.95,161.424 96.517,161.424" id="Fill-204" fill="#2D2E2C"></path>
            <path d="M114.397,161.424 C117.963,161.424 120.854,164.315 120.854,167.881 C120.854,171.447 117.963,174.338 114.397,174.338 C110.831,174.338 107.94,171.447 107.94,167.881 C107.94,164.315 110.831,161.424 114.397,161.424" id="Fill-205" fill="#2D2E2C"></path>
            <path d="M132.278,161.424 C135.844,161.424 138.735,164.315 138.735,167.881 C138.735,171.447 135.844,174.338 132.278,174.338 C128.712,174.338 125.821,171.447 125.821,167.881 C125.821,164.315 128.712,161.424 132.278,161.424" id="Fill-206" fill="#2D2E2C"></path>
            <path d="M150.159,161.424 C153.725,161.424 156.616,164.315 156.616,167.881 C156.616,171.447 153.725,174.338 150.159,174.338 C146.593,174.338 143.702,171.447 143.702,167.881 C143.702,164.315 146.593,161.424 150.159,161.424" id="Fill-207" fill="#2D2E2C"></path>
            <path d="M168.536,161.424 C172.103,161.424 174.993,164.315 174.993,167.881 C174.993,171.447 172.103,174.338 168.536,174.338 C164.97,174.338 162.079,171.447 162.079,167.881 C162.079,164.315 164.97,161.424 168.536,161.424" id="Fill-208" fill="#2D2E2C"></path>
            <path d="M186.417,161.424 C189.983,161.424 192.874,164.315 192.874,167.881 C192.874,171.447 189.983,174.338 186.417,174.338 C182.851,174.338 179.96,171.447 179.96,167.881 C179.96,164.315 182.851,161.424 186.417,161.424" id="Fill-209" fill="#2D2E2C"></path>
            <path d="M204.298,161.424 C207.864,161.424 210.755,164.315 210.755,167.881 C210.755,171.447 207.864,174.338 204.298,174.338 C200.732,174.338 197.841,171.447 197.841,167.881 C197.841,164.315 200.732,161.424 204.298,161.424" id="Fill-210" fill="#2D2E2C"></path>
            <path d="M222.179,161.424 C225.745,161.424 228.636,164.315 228.636,167.881 C228.636,171.447 225.745,174.338 222.179,174.338 C218.613,174.338 215.722,171.447 215.722,167.881 C215.722,164.315 218.613,161.424 222.179,161.424" id="Fill-211" fill="#2D2E2C"></path>
            <path d="M240.06,161.424 C243.626,161.424 246.517,164.315 246.517,167.881 C246.517,171.447 243.626,174.338 240.06,174.338 C236.493,174.338 233.603,171.447 233.603,167.881 C233.603,164.315 236.493,161.424 240.06,161.424" id="Fill-212" fill="#2D2E2C"></path>
            <path d="M257.94,161.424 C261.506,161.424 264.397,164.315 264.397,167.881 C264.397,171.447 261.506,174.338 257.94,174.338 C254.374,174.338 251.483,171.447 251.483,167.881 C251.483,164.315 254.374,161.424 257.94,161.424" id="Fill-213" fill="#2D2E2C"></path>
            <path d="M275.821,161.424 C279.387,161.424 282.278,164.315 282.278,167.881 C282.278,171.447 279.387,174.338 275.821,174.338 C272.255,174.338 269.364,171.447 269.364,167.881 C269.364,164.315 272.255,161.424 275.821,161.424" id="Fill-214" fill="#2D2E2C"></path>
            <path d="M293.702,161.424 C297.268,161.424 300.159,164.315 300.159,167.881 C300.159,171.447 297.268,174.338 293.702,174.338 C290.136,174.338 287.245,171.447 287.245,167.881 C287.245,164.315 290.136,161.424 293.702,161.424" id="Fill-215" fill="#2D2E2C"></path>
            <path d="M311.583,161.424 C315.149,161.424 318.04,164.315 318.04,167.881 C318.04,171.447 315.149,174.338 311.583,174.338 C308.017,174.338 305.126,171.447 305.126,167.881 C305.126,164.315 308.017,161.424 311.583,161.424" id="Fill-216" fill="#2D2E2C"></path>
            <path d="M329.464,161.424 C333.03,161.424 335.921,164.315 335.921,167.881 C335.921,171.447 333.03,174.338 329.464,174.338 C325.897,174.338 323.007,171.447 323.007,167.881 C323.007,164.315 325.897,161.424 329.464,161.424" id="Fill-217" fill="#2D2E2C"></path>
            <path d="M347.841,161.424 C351.407,161.424 354.298,164.315 354.298,167.881 C354.298,171.447 351.407,174.338 347.841,174.338 C344.275,174.338 341.384,171.447 341.384,167.881 C341.384,164.315 344.275,161.424 347.841,161.424" id="Fill-218" fill="#2D2E2C"></path>
            <path d="M365.722,161.424 C369.288,161.424 372.179,164.315 372.179,167.881 C372.179,171.447 369.288,174.338 365.722,174.338 C362.156,174.338 359.265,171.447 359.265,167.881 C359.265,164.315 362.156,161.424 365.722,161.424" id="Fill-219" fill="#2D2E2C"></path>
            <path d="M383.603,161.424 C387.169,161.424 390.06,164.315 390.06,167.881 C390.06,171.447 387.169,174.338 383.603,174.338 C380.037,174.338 377.146,171.447 377.146,167.881 C377.146,164.315 380.037,161.424 383.603,161.424" id="Fill-220" fill="#2D2E2C"></path>
            <path d="M401.483,161.424 C405.049,161.424 407.94,164.315 407.94,167.881 C407.94,171.447 405.049,174.338 401.483,174.338 C397.917,174.338 395.026,171.447 395.026,167.881 C395.026,164.315 397.917,161.424 401.483,161.424" id="Fill-221" fill="#2D2E2C"></path>
            <path d="M419.364,161.424 C422.93,161.424 425.821,164.315 425.821,167.881 C425.821,171.447 422.93,174.338 419.364,174.338 C415.798,174.338 412.907,171.447 412.907,167.881 C412.907,164.315 415.798,161.424 419.364,161.424" id="Fill-222" fill="#2D2E2C"></path>
            <path d="M437.245,161.424 C440.811,161.424 443.702,164.315 443.702,167.881 C443.702,171.447 440.811,174.338 437.245,174.338 C433.679,174.338 430.788,171.447 430.788,167.881 C430.788,164.315 433.679,161.424 437.245,161.424" id="Fill-223" fill="#2D2E2C"></path>
            <path d="M455.126,161.424 C458.692,161.424 461.583,164.315 461.583,167.881 C461.583,171.447 458.692,174.338 455.126,174.338 C451.56,174.338 448.669,171.447 448.669,167.881 C448.669,164.315 451.56,161.424 455.126,161.424" id="Fill-224" fill="#2D2E2C"></path>
            <path d="M42.874,179.305 C46.44,179.305 49.331,182.195 49.331,185.762 C49.331,189.328 46.44,192.219 42.874,192.219 C39.308,192.219 36.417,189.328 36.417,185.762 C36.417,182.195 39.308,179.305 42.874,179.305" id="Fill-225" fill="#2D2E2C"></path>
            <path d="M60.755,179.305 C64.321,179.305 67.212,182.195 67.212,185.762 C67.212,189.328 64.321,192.219 60.755,192.219 C57.189,192.219 54.298,189.328 54.298,185.762 C54.298,182.195 57.189,179.305 60.755,179.305" id="Fill-226" fill="#2D2E2C"></path>
            <path d="M78.636,179.305 C82.202,179.305 85.093,182.195 85.093,185.762 C85.093,189.328 82.202,192.219 78.636,192.219 C75.07,192.219 72.179,189.328 72.179,185.762 C72.179,182.195 75.07,179.305 78.636,179.305" id="Fill-227" fill="#2D2E2C"></path>
            <path d="M96.517,179.305 C100.083,179.305 102.974,182.195 102.974,185.762 C102.974,189.328 100.083,192.219 96.517,192.219 C92.95,192.219 90.06,189.328 90.06,185.762 C90.06,182.195 92.95,179.305 96.517,179.305" id="Fill-228" fill="#2D2E2C"></path>
            <path d="M114.397,179.305 C117.963,179.305 120.854,182.195 120.854,185.762 C120.854,189.328 117.963,192.219 114.397,192.219 C110.831,192.219 107.94,189.328 107.94,185.762 C107.94,182.195 110.831,179.305 114.397,179.305" id="Fill-229" fill="#2D2E2C"></path>
            <path d="M132.278,179.305 C135.844,179.305 138.735,182.195 138.735,185.762 C138.735,189.328 135.844,192.219 132.278,192.219 C128.712,192.219 125.821,189.328 125.821,185.762 C125.821,182.195 128.712,179.305 132.278,179.305" id="Fill-230" fill="#2D2E2C"></path>
            <path d="M150.159,179.305 C153.725,179.305 156.616,182.195 156.616,185.762 C156.616,189.328 153.725,192.219 150.159,192.219 C146.593,192.219 143.702,189.328 143.702,185.762 C143.702,182.195 146.593,179.305 150.159,179.305" id="Fill-231" fill="#2D2E2C"></path>
            <path d="M168.536,179.305 C172.103,179.305 174.993,182.195 174.993,185.762 C174.993,189.328 172.103,192.219 168.536,192.219 C164.97,192.219 162.079,189.328 162.079,185.762 C162.079,182.195 164.97,179.305 168.536,179.305" id="Fill-232" fill="#2D2E2C"></path>
            <path d="M186.417,179.305 C189.983,179.305 192.874,182.195 192.874,185.762 C192.874,189.328 189.983,192.219 186.417,192.219 C182.851,192.219 179.96,189.328 179.96,185.762 C179.96,182.195 182.851,179.305 186.417,179.305" id="Fill-233" fill="#2D2E2C"></path>
            <path d="M204.298,179.305 C207.864,179.305 210.755,182.195 210.755,185.762 C210.755,189.328 207.864,192.219 204.298,192.219 C200.732,192.219 197.841,189.328 197.841,185.762 C197.841,182.195 200.732,179.305 204.298,179.305" id="Fill-234" fill="#2D2E2C"></path>
            <path d="M222.179,179.305 C225.745,179.305 228.636,182.195 228.636,185.762 C228.636,189.328 225.745,192.219 222.179,192.219 C218.613,192.219 215.722,189.328 215.722,185.762 C215.722,182.195 218.613,179.305 222.179,179.305" id="Fill-235" fill="#2D2E2C"></path>
            <path d="M240.06,179.305 C243.626,179.305 246.517,182.195 246.517,185.762 C246.517,189.328 243.626,192.219 240.06,192.219 C236.493,192.219 233.603,189.328 233.603,185.762 C233.603,182.195 236.493,179.305 240.06,179.305" id="Fill-236" fill="#2D2E2C"></path>
            <path d="M257.94,179.305 C261.506,179.305 264.397,182.195 264.397,185.762 C264.397,189.328 261.506,192.219 257.94,192.219 C254.374,192.219 251.483,189.328 251.483,185.762 C251.483,182.195 254.374,179.305 257.94,179.305" id="Fill-237" fill="#2D2E2C"></path>
            <path d="M275.821,179.305 C279.387,179.305 282.278,182.195 282.278,185.762 C282.278,189.328 279.387,192.219 275.821,192.219 C272.255,192.219 269.364,189.328 269.364,185.762 C269.364,182.195 272.255,179.305 275.821,179.305" id="Fill-238" fill="#2D2E2C"></path>
            <path d="M293.702,179.305 C297.268,179.305 300.159,182.195 300.159,185.762 C300.159,189.328 297.268,192.219 293.702,192.219 C290.136,192.219 287.245,189.328 287.245,185.762 C287.245,182.195 290.136,179.305 293.702,179.305" id="Fill-239" fill="#2D2E2C"></path>
            <path d="M311.583,179.305 C315.149,179.305 318.04,182.195 318.04,185.762 C318.04,189.328 315.149,192.219 311.583,192.219 C308.017,192.219 305.126,189.328 305.126,185.762 C305.126,182.195 308.017,179.305 311.583,179.305" id="Fill-240" fill="#2D2E2C"></path>
            <path d="M329.464,179.305 C333.03,179.305 335.921,182.195 335.921,185.762 C335.921,189.328 333.03,192.219 329.464,192.219 C325.897,192.219 323.007,189.328 323.007,185.762 C323.007,182.195 325.897,179.305 329.464,179.305" id="Fill-241" fill="#2D2E2C"></path>
            <path d="M347.841,179.305 C351.407,179.305 354.298,182.195 354.298,185.762 C354.298,189.328 351.407,192.219 347.841,192.219 C344.275,192.219 341.384,189.328 341.384,185.762 C341.384,182.195 344.275,179.305 347.841,179.305" id="Fill-242" fill="#2D2E2C"></path>
            <path d="M365.722,179.305 C369.288,179.305 372.179,182.195 372.179,185.762 C372.179,189.328 369.288,192.219 365.722,192.219 C362.156,192.219 359.265,189.328 359.265,185.762 C359.265,182.195 362.156,179.305 365.722,179.305" id="Fill-243" fill="#2D2E2C"></path>
            <path d="M383.603,179.305 C387.169,179.305 390.06,182.195 390.06,185.762 C390.06,189.328 387.169,192.219 383.603,192.219 C380.037,192.219 377.146,189.328 377.146,185.762 C377.146,182.195 380.037,179.305 383.603,179.305" id="Fill-244" fill="#2D2E2C"></path>
            <path d="M401.483,179.305 C405.049,179.305 407.94,182.195 407.94,185.762 C407.94,189.328 405.049,192.219 401.483,192.219 C397.917,192.219 395.026,189.328 395.026,185.762 C395.026,182.195 397.917,179.305 401.483,179.305" id="Fill-245" fill="#2D2E2C"></path>
            <path d="M419.364,179.305 C422.93,179.305 425.821,182.195 425.821,185.762 C425.821,189.328 422.93,192.219 419.364,192.219 C415.798,192.219 412.907,189.328 412.907,185.762 C412.907,182.195 415.798,179.305 419.364,179.305" id="Fill-246" fill="#2D2E2C"></path>
            <path d="M437.245,179.305 C440.811,179.305 443.702,182.195 443.702,185.762 C443.702,189.328 440.811,192.219 437.245,192.219 C433.679,192.219 430.788,189.328 430.788,185.762 C430.788,182.195 433.679,179.305 437.245,179.305" id="Fill-247" fill="#2D2E2C"></path>
            <path d="M60.755,197.185 C64.321,197.185 67.212,200.076 67.212,203.642 C67.212,207.208 64.321,210.099 60.755,210.099 C57.189,210.099 54.298,207.208 54.298,203.642 C54.298,200.076 57.189,197.185 60.755,197.185" id="Fill-248" fill="#2D2E2C"></path>
            <path d="M78.636,197.185 C82.202,197.185 85.093,200.076 85.093,203.642 C85.093,207.208 82.202,210.099 78.636,210.099 C75.07,210.099 72.179,207.208 72.179,203.642 C72.179,200.076 75.07,197.185 78.636,197.185" id="Fill-249" fill="#2D2E2C"></path>
            <path d="M96.517,197.185 C100.083,197.185 102.974,200.076 102.974,203.642 C102.974,207.208 100.083,210.099 96.517,210.099 C92.95,210.099 90.06,207.208 90.06,203.642 C90.06,200.076 92.95,197.185 96.517,197.185" id="Fill-250" fill="#2D2E2C"></path>
            <path d="M114.397,197.185 C117.963,197.185 120.854,200.076 120.854,203.642 C120.854,207.208 117.963,210.099 114.397,210.099 C110.831,210.099 107.94,207.208 107.94,203.642 C107.94,200.076 110.831,197.185 114.397,197.185" id="Fill-251" fill="#2D2E2C"></path>
            <path d="M132.278,197.185 C135.844,197.185 138.735,200.076 138.735,203.642 C138.735,207.208 135.844,210.099 132.278,210.099 C128.712,210.099 125.821,207.208 125.821,203.642 C125.821,200.076 128.712,197.185 132.278,197.185" id="Fill-252" fill="#2D2E2C"></path>
            <path d="M150.159,197.185 C153.725,197.185 156.616,200.076 156.616,203.642 C156.616,207.208 153.725,210.099 150.159,210.099 C146.593,210.099 143.702,207.208 143.702,203.642 C143.702,200.076 146.593,197.185 150.159,197.185" id="Fill-253" fill="#2D2E2C"></path>
            <path d="M168.536,197.185 C172.103,197.185 174.993,200.076 174.993,203.642 C174.993,207.208 172.103,210.099 168.536,210.099 C164.97,210.099 162.079,207.208 162.079,203.642 C162.079,200.076 164.97,197.185 168.536,197.185" id="Fill-254" fill="#2D2E2C"></path>
            <path d="M186.417,197.185 C189.983,197.185 192.874,200.076 192.874,203.642 C192.874,207.208 189.983,210.099 186.417,210.099 C182.851,210.099 179.96,207.208 179.96,203.642 C179.96,200.076 182.851,197.185 186.417,197.185" id="Fill-255" fill="#2D2E2C"></path>
            <path d="M204.298,197.185 C207.864,197.185 210.755,200.076 210.755,203.642 C210.755,207.208 207.864,210.099 204.298,210.099 C200.732,210.099 197.841,207.208 197.841,203.642 C197.841,200.076 200.732,197.185 204.298,197.185" id="Fill-256" fill="#2D2E2C"></path>
            <path d="M222.179,197.185 C225.745,197.185 228.636,200.076 228.636,203.642 C228.636,207.208 225.745,210.099 222.179,210.099 C218.613,210.099 215.722,207.208 215.722,203.642 C215.722,200.076 218.613,197.185 222.179,197.185" id="Fill-257" fill="#2D2E2C"></path>
            <path d="M240.06,197.185 C243.626,197.185 246.517,200.076 246.517,203.642 C246.517,207.208 243.626,210.099 240.06,210.099 C236.493,210.099 233.603,207.208 233.603,203.642 C233.603,200.076 236.493,197.185 240.06,197.185" id="Fill-258" fill="#2D2E2C"></path>
            <path d="M257.94,197.185 C261.506,197.185 264.397,200.076 264.397,203.642 C264.397,207.208 261.506,210.099 257.94,210.099 C254.374,210.099 251.483,207.208 251.483,203.642 C251.483,200.076 254.374,197.185 257.94,197.185" id="Fill-259" fill="#2D2E2C"></path>
            <path d="M275.821,197.185 C279.387,197.185 282.278,200.076 282.278,203.642 C282.278,207.208 279.387,210.099 275.821,210.099 C272.255,210.099 269.364,207.208 269.364,203.642 C269.364,200.076 272.255,197.185 275.821,197.185" id="Fill-260" fill="#2D2E2C"></path>
            <path d="M293.702,197.185 C297.268,197.185 300.159,200.076 300.159,203.642 C300.159,207.208 297.268,210.099 293.702,210.099 C290.136,210.099 287.245,207.208 287.245,203.642 C287.245,200.076 290.136,197.185 293.702,197.185" id="Fill-261" fill="#2D2E2C"></path>
            <path d="M311.583,197.185 C315.149,197.185 318.04,200.076 318.04,203.642 C318.04,207.208 315.149,210.099 311.583,210.099 C308.017,210.099 305.126,207.208 305.126,203.642 C305.126,200.076 308.017,197.185 311.583,197.185" id="Fill-262" fill="#2D2E2C"></path>
            <path d="M329.464,197.185 C333.03,197.185 335.921,200.076 335.921,203.642 C335.921,207.208 333.03,210.099 329.464,210.099 C325.897,210.099 323.007,207.208 323.007,203.642 C323.007,200.076 325.897,197.185 329.464,197.185" id="Fill-263" fill="#2D2E2C"></path>
            <path d="M347.841,197.185 C351.407,197.185 354.298,200.076 354.298,203.642 C354.298,207.208 351.407,210.099 347.841,210.099 C344.275,210.099 341.384,207.208 341.384,203.642 C341.384,200.076 344.275,197.185 347.841,197.185" id="Fill-264" fill="#2D2E2C"></path>
            <path d="M365.722,197.185 C369.288,197.185 372.179,200.076 372.179,203.642 C372.179,207.208 369.288,210.099 365.722,210.099 C362.156,210.099 359.265,207.208 359.265,203.642 C359.265,200.076 362.156,197.185 365.722,197.185" id="Fill-265" fill="#2D2E2C"></path>
            <path d="M383.603,197.185 C387.169,197.185 390.06,200.076 390.06,203.642 C390.06,207.208 387.169,210.099 383.603,210.099 C380.037,210.099 377.146,207.208 377.146,203.642 C377.146,200.076 380.037,197.185 383.603,197.185" id="Fill-266" fill="#2D2E2C"></path>
            <path d="M401.483,197.185 C405.049,197.185 407.94,200.076 407.94,203.642 C407.94,207.208 405.049,210.099 401.483,210.099 C397.917,210.099 395.026,207.208 395.026,203.642 C395.026,200.076 397.917,197.185 401.483,197.185" id="Fill-267" fill="#2D2E2C"></path>
            <path d="M419.364,197.185 C422.93,197.185 425.821,200.076 425.821,203.642 C425.821,207.208 422.93,210.099 419.364,210.099 C415.798,210.099 412.907,207.208 412.907,203.642 C412.907,200.076 415.798,197.185 419.364,197.185" id="Fill-268" fill="#2D2E2C"></path>
            <path d="M114.397,215.066 C117.963,215.066 120.854,217.957 120.854,221.523 C120.854,225.089 117.963,227.98 114.397,227.98 C110.831,227.98 107.94,225.089 107.94,221.523 C107.94,217.957 110.831,215.066 114.397,215.066" id="Fill-269" fill="#2D2E2C"></path>
            <path d="M132.278,215.066 C135.844,215.066 138.735,217.957 138.735,221.523 C138.735,225.089 135.844,227.98 132.278,227.98 C128.712,227.98 125.821,225.089 125.821,221.523 C125.821,217.957 128.712,215.066 132.278,215.066" id="Fill-270" fill="#2D2E2C"></path>
            <path d="M150.159,215.066 C153.725,215.066 156.616,217.957 156.616,221.523 C156.616,225.089 153.725,227.98 150.159,227.98 C146.593,227.98 143.702,225.089 143.702,221.523 C143.702,217.957 146.593,215.066 150.159,215.066" id="Fill-271" fill="#2D2E2C"></path>
            <path d="M168.536,215.066 C172.103,215.066 174.993,217.957 174.993,221.523 C174.993,225.089 172.103,227.98 168.536,227.98 C164.97,227.98 162.079,225.089 162.079,221.523 C162.079,217.957 164.97,215.066 168.536,215.066" id="Fill-272" fill="#2D2E2C"></path>
            <path d="M186.417,215.066 C189.983,215.066 192.874,217.957 192.874,221.523 C192.874,225.089 189.983,227.98 186.417,227.98 C182.851,227.98 179.96,225.089 179.96,221.523 C179.96,217.957 182.851,215.066 186.417,215.066" id="Fill-273" fill="#2D2E2C"></path>
            <path d="M204.298,215.066 C207.864,215.066 210.755,217.957 210.755,221.523 C210.755,225.089 207.864,227.98 204.298,227.98 C200.732,227.98 197.841,225.089 197.841,221.523 C197.841,217.957 200.732,215.066 204.298,215.066" id="Fill-274" fill="#2D2E2C"></path>
            <path d="M222.179,215.066 C225.745,215.066 228.636,217.957 228.636,221.523 C228.636,225.089 225.745,227.98 222.179,227.98 C218.613,227.98 215.722,225.089 215.722,221.523 C215.722,217.957 218.613,215.066 222.179,215.066" id="Fill-275" fill="#2D2E2C"></path>
            <path d="M240.06,215.066 C243.626,215.066 246.517,217.957 246.517,221.523 C246.517,225.089 243.626,227.98 240.06,227.98 C236.493,227.98 233.603,225.089 233.603,221.523 C233.603,217.957 236.493,215.066 240.06,215.066" id="Fill-276" fill="#2D2E2C"></path>
            <path d="M257.94,215.066 C261.506,215.066 264.397,217.957 264.397,221.523 C264.397,225.089 261.506,227.98 257.94,227.98 C254.374,227.98 251.483,225.089 251.483,221.523 C251.483,217.957 254.374,215.066 257.94,215.066" id="Fill-277" fill="#2D2E2C"></path>
            <path d="M275.821,215.066 C279.387,215.066 282.278,217.957 282.278,221.523 C282.278,225.089 279.387,227.98 275.821,227.98 C272.255,227.98 269.364,225.089 269.364,221.523 C269.364,217.957 272.255,215.066 275.821,215.066" id="Fill-278" fill="#2D2E2C"></path>
            <path d="M293.702,215.066 C297.268,215.066 300.159,217.957 300.159,221.523 C300.159,225.089 297.268,227.98 293.702,227.98 C290.136,227.98 287.245,225.089 287.245,221.523 C287.245,217.957 290.136,215.066 293.702,215.066" id="Fill-279" fill="#2D2E2C"></path>
            <path d="M311.583,215.066 C315.149,215.066 318.04,217.957 318.04,221.523 C318.04,225.089 315.149,227.98 311.583,227.98 C308.017,227.98 305.126,225.089 305.126,221.523 C305.126,217.957 308.017,215.066 311.583,215.066" id="Fill-280" fill="#2D2E2C"></path>
            <path d="M329.464,215.066 C333.03,215.066 335.921,217.957 335.921,221.523 C335.921,225.089 333.03,227.98 329.464,227.98 C325.897,227.98 323.007,225.089 323.007,221.523 C323.007,217.957 325.897,215.066 329.464,215.066" id="Fill-281" fill="#2D2E2C"></path>
            <path d="M347.841,215.066 C351.407,215.066 354.298,217.957 354.298,221.523 C354.298,225.089 351.407,227.98 347.841,227.98 C344.275,227.98 341.384,225.089 341.384,221.523 C341.384,217.957 344.275,215.066 347.841,215.066" id="Fill-282" fill="#2D2E2C"></path>
            <path d="M365.722,215.066 C369.288,215.066 372.179,217.957 372.179,221.523 C372.179,225.089 369.288,227.98 365.722,227.98 C362.156,227.98 359.265,225.089 359.265,221.523 C359.265,217.957 362.156,215.066 365.722,215.066" id="Fill-283" fill="#2D2E2C"></path>
            <path d="M383.603,215.066 C387.169,215.066 390.06,217.957 390.06,221.523 C390.06,225.089 387.169,227.98 383.603,227.98 C380.037,227.98 377.146,225.089 377.146,221.523 C377.146,217.957 380.037,215.066 383.603,215.066" id="Fill-284" fill="#2D2E2C"></path>
            <path d="M401.483,215.066 C405.049,215.066 407.94,217.957 407.94,221.523 C407.94,225.089 405.049,227.98 401.483,227.98 C397.917,227.98 395.026,225.089 395.026,221.523 C395.026,217.957 397.917,215.066 401.483,215.066" id="Fill-285" fill="#2D2E2C"></path>
            <path d="M419.364,215.066 C422.93,215.066 425.821,217.957 425.821,221.523 C425.821,225.089 422.93,227.98 419.364,227.98 C415.798,227.98 412.907,225.089 412.907,221.523 C412.907,217.957 415.798,215.066 419.364,215.066" id="Fill-286" fill="#2D2E2C"></path>
            <path d="M186.417,232.947 C189.983,232.947 192.874,235.838 192.874,239.404 C192.874,242.97 189.983,245.861 186.417,245.861 C182.851,245.861 179.96,242.97 179.96,239.404 C179.96,235.838 182.851,232.947 186.417,232.947" id="Fill-287" fill="#2D2E2C"></path>
            <path d="M204.298,232.947 C207.864,232.947 210.755,235.838 210.755,239.404 C210.755,242.97 207.864,245.861 204.298,245.861 C200.732,245.861 197.841,242.97 197.841,239.404 C197.841,235.838 200.732,232.947 204.298,232.947" id="Fill-288" fill="#2D2E2C"></path>
            <path d="M222.179,232.947 C225.745,232.947 228.636,235.838 228.636,239.404 C228.636,242.97 225.745,245.861 222.179,245.861 C218.613,245.861 215.722,242.97 215.722,239.404 C215.722,235.838 218.613,232.947 222.179,232.947" id="Fill-289" fill="#2D2E2C"></path>
            <path d="M240.06,232.947 C243.626,232.947 246.517,235.838 246.517,239.404 C246.517,242.97 243.626,245.861 240.06,245.861 C236.493,245.861 233.603,242.97 233.603,239.404 C233.603,235.838 236.493,232.947 240.06,232.947" id="Fill-290" fill="#2D2E2C"></path>
            <path d="M257.94,232.947 C261.506,232.947 264.397,235.838 264.397,239.404 C264.397,242.97 261.506,245.861 257.94,245.861 C254.374,245.861 251.483,242.97 251.483,239.404 C251.483,235.838 254.374,232.947 257.94,232.947" id="Fill-291" fill="#2D2E2C"></path>
            <path d="M275.821,232.947 C279.387,232.947 282.278,235.838 282.278,239.404 C282.278,242.97 279.387,245.861 275.821,245.861 C272.255,245.861 269.364,242.97 269.364,239.404 C269.364,235.838 272.255,232.947 275.821,232.947" id="Fill-292" fill="#2D2E2C"></path>
            <path d="M293.702,232.947 C297.268,232.947 300.159,235.838 300.159,239.404 C300.159,242.97 297.268,245.861 293.702,245.861 C290.136,245.861 287.245,242.97 287.245,239.404 C287.245,235.838 290.136,232.947 293.702,232.947" id="Fill-293" fill="#2D2E2C"></path>
            <path d="M311.583,232.947 C315.149,232.947 318.04,235.838 318.04,239.404 C318.04,242.97 315.149,245.861 311.583,245.861 C308.017,245.861 305.126,242.97 305.126,239.404 C305.126,235.838 308.017,232.947 311.583,232.947" id="Fill-294" fill="#2D2E2C"></path>
            <path d="M329.464,232.947 C333.03,232.947 335.921,235.838 335.921,239.404 C335.921,242.97 333.03,245.861 329.464,245.861 C325.897,245.861 323.007,242.97 323.007,239.404 C323.007,235.838 325.897,232.947 329.464,232.947" id="Fill-295" fill="#2D2E2C"></path>
            <path d="M347.841,232.947 C351.407,232.947 354.298,235.838 354.298,239.404 C354.298,242.97 351.407,245.861 347.841,245.861 C344.275,245.861 341.384,242.97 341.384,239.404 C341.384,235.838 344.275,232.947 347.841,232.947" id="Fill-296" fill="#2D2E2C"></path>
            <path d="M383.603,232.947 C387.169,232.947 390.06,235.838 390.06,239.404 C390.06,242.97 387.169,245.861 383.603,245.861 C380.037,245.861 377.146,242.97 377.146,239.404 C377.146,235.838 380.037,232.947 383.603,232.947" id="Fill-297" fill="#2D2E2C"></path>
            <path d="M401.483,232.947 C405.049,232.947 407.94,235.838 407.94,239.404 C407.94,242.97 405.049,245.861 401.483,245.861 C397.917,245.861 395.026,242.97 395.026,239.404 C395.026,235.838 397.917,232.947 401.483,232.947" id="Fill-298" fill="#2D2E2C"></path>
            <path d="M419.364,232.947 C422.93,232.947 425.821,235.838 425.821,239.404 C425.821,242.97 422.93,245.861 419.364,245.861 C415.798,245.861 412.907,242.97 412.907,239.404 C412.907,235.838 415.798,232.947 419.364,232.947" id="Fill-299" fill="#2D2E2C"></path>
            <path d="M222.179,251.324 C225.745,251.324 228.636,254.215 228.636,257.781 C228.636,261.348 225.745,264.238 222.179,264.238 C218.613,264.238 215.722,261.348 215.722,257.781 C215.722,254.215 218.613,251.324 222.179,251.324" id="Fill-300" fill="#2D2E2C"></path>
            <path d="M240.06,251.324 C243.626,251.324 246.517,254.215 246.517,257.781 C246.517,261.348 243.626,264.238 240.06,264.238 C236.493,264.238 233.603,261.348 233.603,257.781 C233.603,254.215 236.493,251.324 240.06,251.324" id="Fill-301" fill="#2D2E2C"></path>
            <path d="M257.94,251.324 C261.506,251.324 264.397,254.215 264.397,257.781 C264.397,261.348 261.506,264.238 257.94,264.238 C254.374,264.238 251.483,261.348 251.483,257.781 C251.483,254.215 254.374,251.324 257.94,251.324" id="Fill-302" fill="#2E2C2C"></path>
            <path d="M275.821,251.324 C279.387,251.324 282.278,254.215 282.278,257.781 C282.278,261.348 279.387,264.238 275.821,264.238 C272.255,264.238 269.364,261.348 269.364,257.781 C269.364,254.215 272.255,251.324 275.821,251.324" id="Fill-303" fill="#2D2E2C"></path>
            <path d="M329.464,251.324 C333.03,251.324 335.921,254.215 335.921,257.781 C335.921,261.348 333.03,264.238 329.464,264.238 C325.897,264.238 323.007,261.348 323.007,257.781 C323.007,254.215 325.897,251.324 329.464,251.324" id="Fill-304" fill="#2D2E2C"></path>
            <path d="M419.364,251.324 C422.93,251.324 425.821,254.215 425.821,257.781 C425.821,261.348 422.93,264.238 419.364,264.238 C415.798,264.238 412.907,261.348 412.907,257.781 C412.907,254.215 415.798,251.324 419.364,251.324" id="Fill-305" fill="#2E2C2C"></path>
            <path d="M437.245,251.324 C440.811,251.324 443.702,254.215 443.702,257.781 C443.702,261.348 440.811,264.238 437.245,264.238 C433.679,264.238 430.788,261.348 430.788,257.781 C430.788,254.215 433.679,251.324 437.245,251.324" id="Fill-306" fill="#2D2E2C"></path>
            <path d="M240.06,269.205 C243.626,269.205 246.517,272.096 246.517,275.662 C246.517,279.228 243.626,282.119 240.06,282.119 C236.493,282.119 233.603,279.228 233.603,275.662 C233.603,272.096 236.493,269.205 240.06,269.205" id="Fill-307" fill="#2D2E2C"></path>
            <path d="M257.94,269.205 C261.506,269.205 264.397,272.096 264.397,275.662 C264.397,279.228 261.506,282.119 257.94,282.119 C254.374,282.119 251.483,279.228 251.483,275.662 C251.483,272.096 254.374,269.205 257.94,269.205" id="Fill-308" fill="#2D2E2C"></path>
            <path d="M437.245,269.205 C440.811,269.205 443.702,272.096 443.702,275.662 C443.702,279.228 440.811,282.119 437.245,282.119 C433.679,282.119 430.788,279.228 430.788,275.662 C430.788,272.096 433.679,269.205 437.245,269.205" id="Fill-309" fill="#2E2C2C"></path>
            <path d="M257.94,287.086 C261.506,287.086 264.397,289.977 264.397,293.543 C264.397,297.109 261.506,300 257.94,300 C254.374,300 251.483,297.109 251.483,293.543 C251.483,289.977 254.374,287.086 257.94,287.086" id="Fill-310" fill="#2D2E2C"></path>
        </g>
    </g>
</svg>